<svg width="177" height="103" viewBox="0 0 177 103" fill="none" xmlns="http://www.w3.org/2000/svg">
<g id="Mask group">
<mask id="mask0_0_4" style="mask-type:alpha" maskUnits="userSpaceOnUse" x="0" y="0" width="177" height="103">
<rect id="Rectangle 74" width="177" height="103" fill="var(--fill-0, #D9D9D9)"/>
</mask>
<g mask="url(#mask0_0_4)">
<path id="Vector" d="M143.49 44.7048L145.611 33.6727C147.318 21.5629 149.149 9.62117 150.423 -2.45732C150.825 -6.25355 151.171 -10.062 151.44 -13.8923C151.821 -19.2926 152.764 -24.0542 153.641 -29.3747L159.693 -66.0932C160.68 -72.0898 161.993 -77.7228 163.252 -83.6111C163.74 -85.9008 162.655 -87.6704 160.333 -88.18L62.8704 -109.572C60.6493 -110.054 58.5907 -109.422 58.04 -107.112L54.9501 -94.1828L54.3521 -91.6791L51.9669 -82.6009L51.4357 -80.5784L40.9339 -42.362L37.1133 -32.0676C37.0551 -31.8907 36.9959 -31.7093 36.9377 -31.5325C32.2159 -17.0215 27.7091 -2.87164 23.8287 11.8921L18.6639 35.4895C17.6821 39.9848 17.0268 44.4061 16.7353 48.8925L16.7302 48.9157C16.6876 49.1981 16.3036 51.8314 16.5547 54.575C16.6827 55.9351 16.9609 57.3185 17.5195 58.4621C17.8414 59.1161 18.2483 59.6916 18.7711 60.137C18.7783 60.1483 18.7912 60.156 18.804 60.1636C18.9754 60.2888 19.1559 60.4159 19.3411 60.544C19.3447 60.5497 19.354 60.5517 19.3576 60.5574C19.5006 60.6568 19.6528 60.7583 19.8051 60.8598C28.4495 66.5346 51.1933 74.92 71.9066 79.7677L74.7974 80.4022C93.0715 84.1263 115.981 83.8506 126.292 83.4788C126.4 83.4733 126.517 83.4698 126.638 83.4674C126.736 83.4645 126.829 83.4606 126.922 83.4567C130.46 83.261 132.413 81.3657 133.326 80.1222C133.611 79.7279 133.794 79.4033 133.89 79.2104C133.922 79.1496 133.943 79.1006 133.959 79.0701C133.962 79.0562 133.976 79.0397 133.979 79.0258C135.906 74.9713 137.26 70.9027 138.326 66.664L141.048 55.8513C142.002 52.0595 142.754 48.5444 143.494 44.7059L143.49 44.7048ZM118.312 -16.0296C117.864 -15.6857 116.739 -16.1512 116.076 -16.2238L114.901 -16.3457C114.489 -16.3922 114.179 -15.7944 114.364 -15.4036C114.692 -14.7094 116.059 -14.8616 117.202 -14.3482C117.568 -14.1851 117.43 -13.355 117.187 -12.8444C116.641 -11.705 115.705 -12.63 114.062 -12.7865C113.729 -12.8158 113.347 -12.0926 113.562 -11.7245C114 -10.9818 116.309 -11.1848 116.915 -10.6337C117.315 -10.2688 117.06 -9.0413 116.574 -8.13182L109.718 -9.56368L111.871 -19.5922L118.443 -18.1255C118.961 -18.0118 118.732 -16.3507 118.312 -16.0296ZM95.5067 -1.07342C95.8366 -1.27326 96.6426 -1.49987 96.6836 -1.79715C96.7769 -2.44273 95.5715 -4.59356 95.262 -4.72956C94.807 -4.93152 93.5755 -4.26841 93.3555 -3.7965C91.2417 0.776155 87.0353 -2.98627 85.9573 3.5153C84.5243 1.03249 88.8396 -2.85763 85.237 -3.95951C86.5001 0.114641 82.6636 1.99992 85.2844 4.54897C83.7724 4.43587 82.45 4.32063 81.0139 3.6408C80.3901 3.32402 81.0265 1.77186 81.3612 1.13066L88.4473 -12.4676L96.9964 -10.4891L97.6336 5.95657C97.6478 6.33401 97.4522 6.8939 97.2912 7.05303C96.9672 7.38057 93.8772 7.05728 93.3059 5.70675C92.3448 3.41504 95.5517 2.38819 95.5067 -1.07342ZM71.516 -28.4059C72.0263 -28.5224 73.5569 -28.3614 73.9813 -27.821C75.0669 -26.45 75.3194 -24.5083 76.0451 -22.5794C76.8062 -23.9048 76.9044 -25.3904 77.3279 -27.0768C78.4046 -27.0787 79.3291 -26.8952 80.4037 -26.4017L78.3331 -16.9239C77.4811 -16.8192 75.6563 -16.8988 75.3194 -17.6388L73.0234 -22.6835C72.8243 -21.0256 72.6871 -19.539 71.9978 -17.9449C70.841 -17.9752 69.9108 -18.1551 68.6892 -18.7295C70.4282 -22.6989 70.2678 -28.1305 71.516 -28.4059ZM71.4787 -14.8065C75.1068 -16.3388 78.9594 -14.8077 82.2391 -13.383C82.1483 -11.5555 81.7867 -10.2396 81.1153 -8.74858C79.1638 -9.73111 77.4836 -10.4694 75.6284 -10.3661C73.2303 -10.241 72.1779 -8.36208 71.9598 -6.24169C71.7386 -4.10738 73.07 -2.33237 75.8407 -1.87981C77.1326 -1.66919 78.5 -1.91353 79.6924 -1.31636C79.5058 0.130329 79.3725 1.26784 78.7097 2.74128C74.7366 3.08462 69.7462 2.36365 67.3551 -1.40871C64.5548 -5.83483 66.7163 -12.789 71.4787 -14.8065ZM80.6898 -18.2297C80.3213 -20.9018 81.3234 -23.4578 81.8993 -26.015C83.1058 -26.0565 83.9388 -25.898 85.0535 -25.4103L83.8646 -19.1324C83.7152 -18.363 84.6143 -17.7767 85.0685 -17.6819C85.7356 -17.5403 86.4133 -17.9555 86.5986 -18.7997L87.8956 -24.7087C89.0148 -24.7498 89.9552 -24.5726 91.1146 -24.0459L89.1244 -16.4805C88.6544 -14.6925 85.9283 -14.7075 84.4709 -15.003C82.8588 -15.3228 80.9489 -16.34 80.6898 -18.2297ZM91.6367 -21.6755L92.223 -23.8609L99.0002 -22.4901C99.6637 -22.3542 100.319 -22.0937 100.453 -21.6218C100.57 -21.2267 100.493 -20.3443 100.234 -19.983C99.9467 -19.5793 98.5806 -19.9375 97.8245 -20.1375L95.7599 -13.0941C95.5272 -12.2992 92.7305 -12.8985 92.8544 -13.6394L94.0496 -20.8299L91.6367 -21.6755ZM108.472 -10.1143C107.613 -9.9334 105.835 -9.96375 105.194 -10.8192C104.431 -11.8276 104.959 -13.637 103.991 -14.7488C102.942 -13.613 103.07 -12.4279 102.576 -11.214C101.415 -11.3375 100.665 -11.6333 99.6153 -12.1943L101.733 -21.7979L108.092 -20.3099C109.337 -20.0219 109.584 -18.4947 109.705 -17.6124C109.897 -16.2333 108.787 -15.4805 108.095 -14.3633C107.398 -13.2379 108.402 -11.4958 108.472 -10.1143ZM100.844 -9.66403L116.149 -6.39236C116.049 -4.79043 115.725 -3.42262 115.214 -1.86727L110.242 -2.73971L107.464 9.3879C105.543 9.25808 103.831 8.93088 102.063 8.17333L104.532 -3.71587L100.455 -5.08711C99.6047 -6.2704 100.291 -8.26871 100.844 -9.66403ZM118.633 -61.2254C119.587 -60.491 118.845 -58.0821 118.136 -56.3758L115.315 -49.5957C115.182 -49.2796 114.617 -49.0002 114.348 -49.0591C114.08 -49.1179 113.53 -49.4622 113.391 -49.7311C112.351 -51.729 110.987 -53.2048 109.192 -54.5663C110.942 -57.1283 116.899 -62.5589 118.632 -61.2208L118.633 -61.2254ZM105.861 -44.208C106.231 -43.9033 107.108 -45.0283 106.606 -46.8255C107.201 -46.8892 107.953 -46.4714 108.185 -45.8711C108.417 -45.2709 108.127 -44.5469 107.589 -44.1059C106.949 -43.5755 106.154 -43.3999 105.361 -43.6276C104.74 -43.8027 103.99 -44.5409 104.063 -45.3367C104.141 -46.1558 105.04 -46.6928 105.862 -46.7309C105.584 -45.7032 105.208 -44.7451 105.857 -44.209L105.861 -44.208ZM103.792 -43.5684C104.307 -43.7323 106.637 -41.9327 108.42 -44.3367L109.473 -45.7537L110.197 -44.7003C109.614 -43.4378 108.553 -42.7762 107.261 -42.5686L104.12 -42.0621C103.939 -42.0337 103.593 -42.0903 103.475 -42.1697C103.183 -42.365 103.478 -43.467 103.796 -43.5674L103.792 -43.5684ZM104.553 -48.2531L104.866 -47.9318C105.079 -47.71 106.381 -48.5181 106.91 -50.1569L107.429 -51.7689C107.745 -51.5294 108.155 -50.9241 108.124 -50.5856L107.916 -48.0451L109.182 -47.6309C109.648 -47.48 110.233 -47.23 110.559 -46.9447C110.4 -46.4447 110.072 -46.0306 109.707 -45.8044C108.686 -46.7626 107.689 -47.2976 106.389 -47.3202C105.022 -47.3431 103.972 -46.4895 103.35 -45.3133L102.22 -43.1695C102.204 -45.215 103.031 -47.3475 104.553 -48.2531ZM95.7251 -54.2843C95.2633 -52.7764 95.2221 -51.0207 96.2765 -49.8607C97.9178 -49.8068 97.8061 -46.3601 96.8171 -44.3943L96.6819 -46.7381C96.5611 -48.8162 95.1228 -50.3473 92.9316 -50.2594C92.2073 -50.2288 91.7094 -50.0805 90.9486 -49.8391L90.7045 -51.1567C91.0345 -51.3127 91.6907 -51.4312 92.0093 -51.3807L93.7641 -51.0928C93.981 -52.5669 94.4831 -53.9929 95.7297 -54.2832L95.7251 -54.2843ZM93.8103 -46.7753C94.6944 -47.048 94.9745 -47.949 94.9726 -49.1551C95.3722 -48.9216 95.783 -48.496 95.9657 -48.0913C96.1912 -47.5945 96.1375 -46.9305 95.7094 -46.548C94.9248 -45.8451 93.8767 -45.9731 93.1143 -46.5197C92.4106 -47.0241 91.8713 -47.969 92.2922 -48.9365C92.6245 -49.6997 93.7328 -49.8016 94.3699 -49.5014C93.5126 -48.7318 93.2154 -47.5768 93.8103 -46.7753ZM94.6768 -45.5545C95.0333 -45.5443 95.5555 -45.4053 95.6752 -45.1554C95.7933 -44.9205 95.6728 -44.3051 95.4399 -44.1278C95.2307 -43.9695 94.7214 -44.057 94.4509 -44.2379L91.9859 -45.9068C90.9011 -46.6408 90.2552 -47.7403 90.2541 -49.0823L91.3139 -49.8026C91.5926 -49.1289 91.6516 -48.6687 91.692 -48.0132C91.7833 -46.5298 93.1942 -45.6027 94.6686 -45.5611L94.6768 -45.5545ZM89.6455 -67.6025C91.7119 -67.9608 94.9153 -60.5342 95.3341 -57.6274C93.9121 -57.2005 92.6258 -56.9724 91.5078 -56.3184L89.4144 -55.086C89.0799 -54.8872 88.5881 -54.7229 88.2659 -54.779C87.9196 -54.8356 87.6518 -55.4048 87.6566 -55.8462C87.7221 -59.0161 87.8748 -62.0308 88.1596 -65.2061C88.239 -66.0978 88.828 -67.4562 89.6445 -67.5979L89.6455 -67.6025ZM93.8021 -39.9125C94.5476 -39.5982 95.2821 -39.8745 95.7943 -40.5739L96.3586 -39.9639C97.1949 -39.2018 97.8921 -37.8286 97.789 -37.0053C97.6935 -36.2387 95.9881 -35.6698 94.7368 -35.4243L97.7169 -35.0425C98.5704 -34.9329 99.4598 -34.3244 100.39 -34.2321C99.6011 -34.8136 98.7466 -35.4484 98.3208 -36.4024C97.9751 -37.1686 99.5074 -38.4512 100.094 -38.692L101.57 -39.3014C101.78 -38.5991 102.242 -37.9434 102.928 -37.89C107.348 -37.5519 111.666 -35.5783 114.975 -32.7859C112.108 -34.5431 109.386 -36.1664 106.132 -37.0459L106.055 -35.8133C108.696 -34.2855 111.252 -32.7183 113.208 -30.3247L110.379 -32.6326C109.01 -33.7499 107.559 -34.6712 105.967 -35.4582L105.189 -34.3845C107.214 -32.6565 109.04 -30.6611 110.073 -28.1641C108.537 -30.3778 107.224 -32.6153 104.94 -34.0891C104.353 -33.7803 103.609 -33.5256 102.974 -33.3732C101.116 -31.2481 98.5233 -30.4997 95.8836 -31.4826C93.9697 -32.1944 92.6445 -33.6666 92.2038 -35.6788C91.5946 -36.1723 91.0604 -36.6979 90.5697 -37.2675C87.9004 -36.813 85.7448 -35.3852 83.4139 -34.0202C85.3524 -35.8943 87.9707 -36.8461 90.476 -37.6138L90.3301 -38.8709C87.4317 -39.0063 84.7491 -38.0491 81.8594 -37.3853C84.5444 -38.6629 87.5009 -39.0349 90.3976 -39.2888L90.7137 -40.464L88.4829 -40.6814C87.3582 -40.7921 86.1412 -40.8356 85.0103 -40.7192L80.9073 -40.2925C84.7049 -41.3599 90.1929 -41.4485 93.8098 -39.9254L93.8021 -39.9125ZM58.0291 -90.872L58.6271 -93.3757L84.852 -87.6197C88.0666 -86.9141 90.102 -83.7303 89.3945 -80.5068C89.0402 -78.8927 88.0674 -77.5748 86.7818 -76.7534C85.4951 -75.9274 83.8946 -75.5932 82.2897 -75.9454L55.6439 -81.7939L58.0291 -90.872ZM44.9565 -22.0133C44.9565 -22.0133 27.8855 48.4521 26.2475 55.4287C25.7051 57.7453 23.6275 58.8839 21.1086 59.2499C20.55 58.1063 20.2719 56.7229 20.1438 55.3627C19.8927 52.6192 20.2768 49.9858 20.3194 49.7035L20.3245 49.6803C20.6159 45.1938 21.2712 40.7726 22.2531 36.2772L27.4178 12.6799C31.2982 -2.08386 35.805 -16.2337 40.5268 -30.7447C43.308 -30.2072 46.4731 -28.2825 44.9565 -22.0133ZM117.9 63.5081C117.402 65.7808 115.156 67.2227 112.885 66.7243L41.2264 50.9962C38.9554 50.4977 37.5197 48.2477 38.0186 45.975L43.2044 22.3482C43.7042 20.0709 45.9502 18.629 48.2212 19.1274L119.879 34.8556C122.15 35.354 123.586 37.604 123.086 39.8813L117.9 63.5081ZM138.028 55.1884L135.306 66.0011C134.239 70.2398 132.886 74.3084 130.958 78.3629C130.955 78.3768 130.951 78.3953 130.939 78.4072C130.923 78.4376 130.902 78.4866 130.869 78.5475C130.774 78.7404 130.591 79.0649 130.306 79.4593C128.59 79.4571 126.966 79.2367 125.75 78.8142C121.796 77.4358 143.498 -2.04736 143.498 -2.04736C145.172 -2.73971 146.444 -3.05845 147.403 -3.12023C146.129 8.95826 144.298 20.9 142.59 33.0098L140.47 44.0419C139.733 47.8815 138.981 51.3966 138.028 55.1884Z" fill="#00B6ED"/>
</g>
</g>
</svg>

