<svg width="123" height="183" viewBox="0 0 123 183" fill="none" xmlns="http://www.w3.org/2000/svg">
<path id="Vector" d="M122.914 133.406L122.623 122.176C121.702 109.981 120.937 97.9248 119.603 85.854C119.185 82.0599 118.71 78.2658 118.156 74.4669C117.376 69.1105 117.278 64.2575 116.996 58.8726L115.051 21.7104C114.732 15.6417 114.807 9.85799 114.774 3.83682C114.76 1.49578 113.332 0 110.974 0H11.9964C9.74181 0.00474856 7.88176 1.06367 7.83949 3.43795L7.59523 16.7292L7.54827 19.3029L7.1678 28.6813L7.08326 30.7707L5.03532 70.3499L3.52284 81.2241C3.50405 81.4093 3.48526 81.5992 3.46647 81.7844C1.97749 96.9703 0.620019 111.757 0 127.01L0.0141051 151.166C0.0188022 155.767 0.324099 160.226 0.995786 164.671V164.694C1.01457 164.979 1.20247 167.634 2.02916 170.26C2.4425 171.561 3.00616 172.852 3.79058 173.85C4.2415 174.419 4.75819 174.894 5.35943 175.217C5.36882 175.227 5.38289 175.231 5.39698 175.236C5.58956 175.322 5.79155 175.407 5.99823 175.493C6.00292 175.497 6.01231 175.497 6.017 175.502C6.17671 175.569 6.3458 175.635 6.5149 175.701C16.097 179.391 39.9161 182.706 61.0155 183H63.9512C82.4485 182.72 104.586 177.539 114.497 174.965C114.6 174.937 114.713 174.908 114.83 174.88C114.924 174.856 115.014 174.832 115.103 174.809C118.489 173.859 119.978 171.589 120.598 170.179C120.791 169.733 120.899 169.376 120.951 169.167C120.97 169.101 120.979 169.049 120.988 169.015C120.988 169.001 120.998 168.982 120.998 168.968C122.003 164.595 122.449 160.33 122.581 155.962L122.919 144.817C123.036 140.909 123.017 137.314 122.919 133.406H122.914ZM85.6049 79.4814C85.2433 79.9135 84.0549 79.6998 83.3973 79.7711L82.2324 79.904C81.8238 79.9468 81.65 80.5973 81.913 80.9392C82.378 81.547 83.6697 81.1054 84.8863 81.3618C85.2762 81.4426 85.3184 82.283 85.1916 82.8339C84.9051 84.0638 83.8012 83.361 82.176 83.5604C81.8472 83.6031 81.6312 84.3914 81.9177 84.7048C82.5002 85.3364 84.6937 84.6431 85.3983 85.0514C85.8633 85.3221 85.8774 86.5757 85.6002 87.5682L78.6532 87.6394L78.6062 77.3825L85.2855 77.4063C85.8116 77.4063 85.9431 79.0778 85.6049 79.4814ZM66.6896 98.979C66.9668 98.7131 67.6995 98.3189 67.6761 98.0198C67.6291 97.3692 66.0039 95.5268 65.6751 95.4603C65.1913 95.3606 64.1391 96.2723 64.0264 96.7804C62.9507 101.7 58.0751 98.9267 58.4133 105.508C56.4969 103.39 59.8506 98.6656 56.1258 98.3617C58.216 102.07 54.8999 104.734 57.9812 106.662C56.4922 106.876 55.1864 107.047 53.6505 106.691C52.9788 106.515 53.2653 104.862 53.4532 104.164L57.4269 89.3631L66.1307 89.4629L70.2454 105.39C70.3393 105.755 70.2689 106.344 70.1467 106.534C69.9025 106.923 66.84 107.27 65.9992 106.073C64.5806 104.041 67.4694 102.35 66.6896 98.979ZM37.6333 77.4253C38.103 77.2021 39.6202 77.0311 40.1463 77.468C41.4896 78.5744 42.1472 80.4169 43.2604 82.1453C43.716 80.6875 43.4953 79.2155 43.547 77.4775C44.5897 77.2448 45.5244 77.2258 46.6705 77.4775L46.6799 87.1788C45.8767 87.4637 44.0918 87.7771 43.608 87.1266L40.3107 82.6914C40.4704 84.3534 40.6535 85.835 40.3247 87.5397C39.1974 87.7581 38.258 87.7819 36.9522 87.4827C37.793 83.2327 36.4825 77.9619 37.6333 77.4253ZM40.4891 90.7165C43.6785 88.4419 47.7368 89.1115 51.2173 89.8C51.518 91.6045 51.4475 92.9673 51.114 94.5676C49.0144 94.0262 47.2295 93.6653 45.454 94.1639C43.1571 94.8002 42.5371 96.8611 42.7766 98.979C43.0162 101.111 44.6837 102.559 47.4643 102.407C48.7608 102.336 50.0337 101.804 51.316 102.132C51.4428 103.585 51.5555 104.725 51.2267 106.306C47.4503 107.493 42.4619 107.859 39.343 104.687C35.6887 100.964 36.304 93.7081 40.4891 90.7165ZM48.6856 85.3981C47.7603 82.8671 48.1877 80.1557 48.2018 77.5345C49.362 77.2353 50.2028 77.2116 51.3865 77.449L51.5696 83.8358C51.5884 84.6193 52.5842 84.9992 53.0445 84.9945C53.7209 84.9897 54.2893 84.4389 54.2893 83.5747V77.525C55.3649 77.2448 56.3137 77.2163 57.5491 77.4822L57.2297 85.2984C57.1545 87.1456 54.51 87.7154 53.0351 87.7392C51.4053 87.7724 49.3385 87.1883 48.6856 85.3981ZM61.4195 69.4809C57.9812 69.5617 56.5627 67.1066 56.5627 67.1066C56.5627 67.1066 59.3152 67.2681 61.4195 65.1027C61.4195 65.1027 62.6313 66.9024 66.3984 67.1066C66.3984 67.1066 64.8625 69.3955 61.4195 69.4809ZM67.1124 77.8479C67.3097 78.2088 67.4224 79.0873 67.2486 79.4956C67.056 79.9515 65.6563 79.8945 64.8813 79.8613L64.3787 87.1835C64.3223 88.0098 61.4852 88.024 61.4477 87.2738L61.0766 79.9943L58.5589 79.6856L58.6623 77.4253L65.5201 77.3113C66.1918 77.3018 66.8822 77.4158 67.1124 77.8479ZM77.3286 87.3687C76.5348 87.7296 74.8063 88.081 74.0031 87.383C73.0495 86.5615 73.1764 84.6811 72.0021 83.8026C71.2271 85.1369 71.6028 86.2671 71.3821 87.5587C70.2313 87.6869 69.4422 87.5587 68.3054 87.2358L68.3149 77.4015L74.7922 77.4918C76.0604 77.506 76.6241 78.9448 76.9294 79.7806C77.4085 81.0864 76.4925 82.0599 76.0604 83.2992C75.6236 84.5481 76.9669 86.0344 77.3286 87.3687ZM70.034 89.4439L85.558 89.3584C85.8022 90.9444 85.7787 92.35 85.6143 93.9787L80.6119 94.1924L80.4992 106.634C78.6109 106.919 76.8824 106.966 75.0082 106.605L74.872 94.4631L70.6305 93.9977C69.5549 93.0243 69.7944 90.9254 70.034 89.4439ZM71.9175 37.7606C73.073 36.7586 74.4352 35.9656 75.8443 35.4907C77.0327 35.0919 78.1553 35.7424 78.4512 36.9058C79.4188 40.6999 78.0238 44.2566 78.1459 46.7923C78.2446 48.7915 79.2169 50.6054 79.6866 52.5523L76.5207 50.5389C76.206 50.3395 75.7128 49.9643 75.6283 49.6699C74.6231 46.099 70.9875 44.3468 67.4741 43.8055C66.9104 43.72 66.4125 43.3211 66.173 42.7275L71.9128 37.7606H71.9175ZM67.3754 52.9939C67.0983 54.1573 66.8024 55.2257 67.4882 56.3227C67.6666 56.6028 68.2444 56.8355 68.4699 56.5553C68.949 55.976 69.1509 55.031 68.8785 54.4612C68.6108 54.314 68.282 54.0433 68.3665 53.8819L68.5873 53.4593C68.639 53.3595 68.4417 53.1649 68.2491 52.9037C68.9255 52.709 69.9447 53.0129 70.3863 53.616C70.9358 54.3663 70.8184 55.373 70.3017 56.0947C69.6676 56.9875 68.8409 57.3056 67.7747 57.3056C66.7084 57.3056 65.7737 56.9542 65.1678 55.9855C65.3932 54.7746 65.8583 53.4545 67.3707 52.9939H67.3754ZM59.3763 61.4037C59.644 61.0903 60.7431 61.133 61.4148 61.1899C62.0912 61.133 63.1856 61.0903 63.4533 61.4037C63.8479 61.8643 63.8479 62.3249 63.242 62.51C62.636 62.6952 62.3025 62.8805 62.3025 63.1226C62.3025 63.3458 62.326 63.8776 61.6356 64.0581C61.5698 64.0961 61.4993 64.1103 61.4148 64.1008C61.3302 64.1103 61.2551 64.0961 61.194 64.0581C60.5083 63.8729 60.527 63.3458 60.527 63.1226C60.527 62.8757 60.1935 62.6952 59.5876 62.51C58.9817 62.3249 58.9817 61.8643 59.3763 61.4037ZM57.6994 56.0615C56.821 57.5858 54.1343 57.7425 52.9694 56.4414C52.401 55.8098 52.0018 54.8554 52.3728 53.9769C52.7345 53.1127 53.8008 52.6853 54.759 52.8895C53.5283 54.3378 54.1671 56.7406 54.9516 56.7121C55.1113 56.7073 55.5199 56.4461 55.5669 56.2847L56.0319 54.6749C55.7125 54.6084 55.3132 54.4897 55.3649 54.3568L55.6608 53.616L55.4307 52.9464C56.7083 53.1459 57.8732 54.6797 57.6994 56.0615ZM45.4164 35.638C47.2953 34.579 50.5457 37.3 52.4856 38.9667L56.7412 42.6326C56.7599 43.1692 56.2104 43.6962 55.6655 43.7769C53.1291 44.1616 50.7241 45.1398 48.8688 46.9443C47.2436 48.5208 47.9012 49.6509 46.539 50.5057L43.3121 52.5286C43.7349 50.5817 44.7494 48.7725 44.834 46.7828C44.8997 45.1636 44.4347 43.5538 44.3079 41.9488C44.1435 39.8072 43.9791 36.4452 45.4164 35.6332V35.638ZM11.2825 19.3029L11.3294 16.7292H37.9621C41.2266 16.7292 43.8758 19.4026 43.8758 22.7029C43.8758 24.3554 43.2135 25.8511 42.1425 26.9291C41.0716 28.0117 39.592 28.6813 37.9621 28.6813H10.902L11.2825 19.3029ZM13.2599 89.3631C13.2599 89.3631 11.7052 161.85 11.6019 169.015C11.569 171.395 9.79819 172.952 7.43554 173.85C6.65112 172.852 6.08747 171.561 5.67412 170.26C4.84743 167.634 4.65954 164.979 4.64075 164.694V164.671C3.96907 160.226 3.66374 155.767 3.65904 151.166L3.64497 127.01C4.26499 111.757 5.62245 96.9703 7.11144 81.7844C9.92032 81.7132 13.3962 82.9146 13.2599 89.3631ZM102.12 157.258C102.12 159.585 100.251 161.475 97.9443 161.475H25.1719C22.8656 161.475 20.9961 159.585 20.9961 157.258V133.069C20.9961 130.737 22.8656 128.847 25.1719 128.847H97.9443C100.251 128.847 102.12 130.737 102.12 133.069V157.258ZM119.852 144.817L119.513 155.962C119.382 160.33 118.936 164.595 117.93 168.968C117.93 168.982 117.93 169.001 117.921 169.015C117.912 169.049 117.902 169.101 117.884 169.167C117.832 169.376 117.724 169.733 117.531 170.179C115.868 170.545 114.248 170.677 112.98 170.526C108.856 170.027 112.98 87.7392 112.98 87.7392C114.455 86.704 115.619 86.1199 116.535 85.854C117.869 97.9248 118.635 109.981 119.556 122.176L119.847 133.406C119.95 137.314 119.969 140.909 119.852 144.817Z" fill="#00B6ED"/>
</svg>

