<svg width="123" height="183" viewBox="0 0 123 183" fill="none" xmlns="http://www.w3.org/2000/svg">
<path id="Vector" d="M122.915 133.406L122.623 122.176C121.703 109.981 120.937 97.9248 119.603 85.854C119.185 82.0599 118.711 78.2658 118.156 74.4669C117.377 69.1105 117.278 64.2575 116.996 58.8726L115.052 21.7104C114.732 15.6417 114.807 9.85799 114.775 3.83682C114.76 1.49578 113.332 0 110.974 0H11.9965C9.74185 0.00474856 7.88179 1.06367 7.83952 3.43795L7.59526 16.7292L7.5483 19.3029L7.16783 28.6813L7.08329 30.7707L5.03534 70.3499L3.52285 81.2241C3.50406 81.4093 3.48528 81.5992 3.46649 81.7844C1.9775 96.9703 0.620022 111.757 0 127.01L0.0141052 151.166C0.0188023 155.767 0.3241 160.226 0.99579 164.671V164.694C1.01458 164.979 1.20247 167.634 2.02917 170.26C2.44251 171.561 3.00617 172.852 3.79059 173.85C4.24152 174.419 4.75818 174.894 5.35942 175.217C5.36881 175.227 5.38291 175.231 5.397 175.236C5.58959 175.322 5.79158 175.407 5.99825 175.493C6.00295 175.497 6.01233 175.497 6.01703 175.502C6.17673 175.569 6.34583 175.635 6.51492 175.701C16.0971 179.391 39.9163 182.706 61.0158 183H63.9515C82.4488 182.72 104.586 177.539 114.497 174.965C114.601 174.937 114.713 174.908 114.831 174.88C114.925 174.856 115.014 174.832 115.103 174.809C118.49 173.859 119.979 171.589 120.599 170.179C120.792 169.733 120.9 169.376 120.951 169.167C120.97 169.101 120.979 169.049 120.989 169.015C120.994 169.001 120.998 168.982 120.998 168.968C122.003 164.595 122.45 160.33 122.581 155.962L122.919 144.817C123.037 140.909 123.018 137.314 122.915 133.406ZM85.6053 79.4814C85.2436 79.9135 84.0552 79.6998 83.3976 79.7711L82.2327 79.904C81.8241 79.9468 81.6503 80.5973 81.9133 80.9392C82.3783 81.547 83.6701 81.1054 84.8866 81.3618C85.2765 81.4426 85.3188 82.283 85.192 82.8339C84.9054 84.0638 83.8016 83.361 82.1764 83.5604C81.8476 83.6031 81.6315 84.3914 81.918 84.7048C82.5005 85.3364 84.694 84.6431 85.3986 85.0514C85.8636 85.3221 85.8777 86.5757 85.6006 87.5682L78.6535 87.6394L78.6066 77.3825L85.2859 77.4063C85.812 77.4063 85.9435 79.0778 85.6053 79.4814ZM66.6899 98.979C66.967 98.7131 67.6998 98.3189 67.6763 98.0198C67.6294 97.3692 66.0041 95.5268 65.6753 95.4603C65.1915 95.3606 64.1394 96.2723 64.0266 96.7804C62.951 101.7 58.0754 98.9267 58.4136 105.508C56.4971 103.39 59.8509 98.6656 56.1261 98.3617C58.2163 102.07 54.9001 104.734 57.9814 106.662C56.4924 106.876 55.1867 107.047 53.6507 106.691C52.979 106.515 53.2655 104.862 53.4534 104.164L57.4272 89.3631L66.131 89.4629L70.2456 105.39C70.3396 105.755 70.2691 106.344 70.147 106.534C69.9028 106.923 66.8402 107.27 65.9994 106.073C64.5809 104.041 67.4696 102.35 66.6899 98.979ZM37.6334 77.4253C38.1032 77.2021 39.6203 77.0311 40.1464 77.468C41.4898 78.5744 42.1474 80.4169 43.2606 82.1453C43.7162 80.6875 43.4955 79.2155 43.5471 77.4775C44.5899 77.2448 45.5246 77.2258 46.6707 77.4775L46.6801 87.1788C45.8769 87.4637 44.092 87.7771 43.6082 87.1266L40.3108 82.6914C40.4705 84.3534 40.6537 85.835 40.3249 87.5397C39.1976 87.7581 38.2582 87.7819 36.9524 87.4827C37.7931 83.2327 36.4826 77.9619 37.6334 77.4253ZM40.4893 90.7165C43.6787 88.4419 47.737 89.1115 51.2175 89.8C51.5182 91.6045 51.4477 92.9673 51.1142 94.5676C49.0146 94.0262 47.2297 93.6653 45.4542 94.1639C43.1573 94.8002 42.5373 96.8611 42.7768 98.979C43.0164 101.111 44.6838 102.559 47.4645 102.407C48.761 102.336 50.0339 101.804 51.3162 102.132C51.443 103.585 51.5558 104.725 51.227 106.306C47.4505 107.493 42.4621 107.859 39.3432 104.687C35.6888 100.964 36.3042 93.7081 40.4893 90.7165ZM48.6858 85.3981C47.7605 82.8671 48.1879 80.1557 48.202 77.5345C49.3622 77.2353 50.203 77.2116 51.3867 77.449L51.5698 83.8358C51.5886 84.6193 52.5844 84.9992 53.0447 84.9945C53.7211 84.9897 54.2895 84.4389 54.2895 83.5747V77.525C55.3651 77.2448 56.314 77.2163 57.5493 77.4822L57.2299 85.2984C57.1547 87.1456 54.5102 87.7154 53.0353 87.7392C51.4054 87.7724 49.3387 87.1883 48.6858 85.3981ZM58.5592 79.6856L58.6625 77.4253L65.5203 77.3113C66.192 77.3018 66.8825 77.4158 67.1127 77.8479C67.3099 78.2088 67.4227 79.0873 67.2489 79.4956C67.0563 79.9515 65.6566 79.8945 64.8815 79.8613L64.3789 87.1835C64.3226 88.0098 61.4855 88.024 61.4479 87.2738L61.0769 79.9943L58.5592 79.6856ZM77.3289 87.3687C76.5351 87.7296 74.8066 88.081 74.0034 87.383C73.0498 86.5615 73.1767 84.6811 72.0024 83.8026C71.2273 85.1369 71.6031 86.2671 71.3824 87.5587C70.2316 87.6869 69.4424 87.5587 68.3057 87.2358L68.3151 77.4015L74.7925 77.4918C76.0607 77.506 76.6243 78.9448 76.9297 79.7806C77.4088 81.0864 76.4928 82.0599 76.0607 83.2992C75.6239 84.5481 76.9672 86.0344 77.3289 87.3687ZM70.0343 89.4439L85.5583 89.3584C85.8025 90.9444 85.7791 92.35 85.6147 93.9787L80.6123 94.1924L80.4995 106.634C78.6112 106.919 76.8827 106.966 75.0085 106.605L74.8723 94.4631L70.6308 93.9977C69.5552 93.0243 69.7947 90.9254 70.0343 89.4439ZM76.6009 36.4025C76.9203 36.0891 77.6577 35.8754 77.9912 35.9894C79.6023 36.5307 79.715 40.1728 79.4426 42.3287C79.1185 44.9024 78.104 47.2767 77.2397 49.6889C76.925 50.5627 76.7042 51.1848 76.1546 52.144C75.699 51.7261 75.3843 51.4317 75.1307 50.9948C73.7638 48.6205 72.0728 46.6451 69.6726 45.0971C71.683 41.8585 73.9376 38.9809 76.6009 36.4025ZM63.9186 56.2467L64.13 53.7584C64.2897 51.8115 63.9374 49.7364 65.1211 47.9605C65.7552 49.8979 65.0835 51.9777 65.4358 52.6995C65.4875 52.8135 65.9008 52.6568 65.9853 52.5476C66.9201 51.3557 66.7087 50.0736 67.5777 49.8077C67.8877 50.6386 67.9957 51.2749 68.0756 52.0442C70.0766 52.1534 72.4909 53.3121 72.0446 54.4945C71.838 55.0548 71.9413 55.1688 72.0446 55.7006C72.3312 57.1347 71.2132 58.8536 69.7665 59.395C68.2071 59.979 66.6382 59.7939 65.2526 59.319L65.4546 58.4168C65.5438 58.0417 68.0286 59.5944 69.9216 57.9704C70.8563 57.0159 71.0865 55.6531 70.7952 54.3615C69.7384 53.1981 68.2259 52.7945 66.7604 53.3833C65.99 53.8344 65.309 54.6037 65.0976 55.5154L64.3602 58.716C64.0642 57.9514 63.8435 57.1204 63.9139 56.2467H63.9186ZM69.8793 55.4537C69.8793 56.033 69.419 56.5031 68.8459 56.5031C68.2729 56.5031 67.8078 56.033 67.8078 55.4537C67.8078 54.8744 68.2729 54.4042 68.8459 54.4042C69.3203 54.4042 69.7196 54.7272 69.837 55.1688C69.8793 55.2115 69.9121 55.2542 69.945 55.3017L69.8605 55.278C69.8746 55.335 69.8793 55.392 69.8793 55.4537ZM60.6212 63.7637C60.8467 64.0059 61.1426 64.267 61.1896 64.4949C61.3822 65.3781 59.8697 66.1284 58.3384 66.3991C59.8227 67.5387 61.0956 65.7391 62.0116 66.2946C62.8571 66.8075 63.7871 67.0022 64.689 66.4608L62.5846 65.7628C62.1713 65.6251 61.5043 64.6564 61.7861 64.3477L63.7824 62.1587C66.3752 62.1919 69.6397 62.7427 69.0432 65.136C68.8177 66.0477 68.1225 66.741 67.4837 67.591C67.4837 67.591 66.2061 69.5997 61.5043 69.7231C57.8123 69.8181 56.2811 68.3555 55.7926 67.7192C55.8114 67.724 55.8302 67.7287 55.8489 67.7287C55.7644 67.629 55.6845 67.5293 55.6 67.4343C55.0316 66.7505 54.5149 66.1522 54.1955 65.4114C53.7822 64.4617 54.064 63.4835 55.0034 63.0276C56.267 62.4103 57.6104 62.2631 59.0806 62.1301L60.6212 63.7637ZM55.6188 49.6415C56.5112 50.5627 55.957 52.5096 57.5634 52.804C57.5164 50.9995 57.3943 49.3803 57.7513 47.723C58.3337 48.4068 58.5733 49.0669 58.6202 49.6937L58.8739 53.1079L59.0289 56.0615C59.0806 57.0635 59.0242 57.9324 58.4981 58.6922L57.9016 55.8763C57.7184 55.0026 57.2205 54.0291 56.4502 53.559C54.9847 52.6663 53.1856 53.1126 52.1288 54.4137C51.8564 55.7956 52.1617 57.2534 53.2045 58.1984C54.4116 58.9297 55.7503 58.8916 57.2205 58.2791C57.4694 58.4928 57.6526 58.9439 57.7231 59.3665C56.2999 59.7274 54.9377 59.9221 53.5333 59.5565C51.7249 59.0816 50.264 56.7975 51.0813 55.1545C50.6962 54.3425 50.715 53.6397 51.4101 53.1601C52.4576 52.4336 53.6507 52.1914 54.8954 51.9872C54.9189 51.0233 55.0363 50.292 55.6188 49.6415ZM56.9809 55.4537C56.9809 56.033 56.5159 56.5031 55.9429 56.5031C55.3698 56.5031 54.9048 56.033 54.9048 55.4537C54.9048 54.8744 55.3698 54.4042 55.9429 54.4042C56.5159 54.4042 56.9809 54.8744 56.9809 55.4537ZM44.7731 36.0748C45.2428 35.8611 45.8158 36.0368 46.3419 36.3027C47.6994 37.5848 48.8408 38.9382 50.0057 40.4102C51.227 41.963 52.3636 43.4683 53.3031 45.2775C50.9827 46.5549 49.4186 48.4591 48.0564 50.7146C47.6759 51.3557 47.3565 51.7451 46.6613 52.144L45.4166 48.8627C44.5758 46.6404 43.7256 44.4133 43.519 42.001C43.3405 39.9021 43.3874 36.7064 44.7731 36.0748ZM11.2825 19.3029L11.3295 16.7292H37.9622C41.2268 16.7292 43.8759 19.4026 43.8759 22.7029C43.8759 24.3554 43.2137 25.8511 42.1427 26.9291C41.0718 28.0117 39.5922 28.6813 37.9622 28.6813H10.9021L11.2825 19.3029ZM13.26 89.3631C13.26 89.3631 11.7053 161.85 11.6019 169.015C11.569 171.395 9.79823 172.952 7.43557 173.85C6.65115 172.852 6.08749 171.561 5.67415 170.26C4.84745 167.634 4.65956 164.979 4.64077 164.694V164.671C3.96908 160.226 3.66375 155.767 3.65906 151.166L3.64498 127.01C4.265 111.757 5.62248 96.9703 7.11147 81.7844C9.92036 81.7132 13.3962 82.9146 13.26 89.3631ZM102.12 157.258C102.12 159.585 100.251 161.475 97.9446 161.475H25.172C22.8657 161.475 20.9962 159.585 20.9962 157.258V133.069C20.9962 130.737 22.8657 128.847 25.172 128.847H97.9446C100.251 128.847 102.12 130.737 102.12 133.069V157.258ZM119.852 144.817L119.514 155.962C119.382 160.33 118.936 164.595 117.931 168.968C117.931 168.982 117.926 169.001 117.922 169.015C117.912 169.049 117.903 169.101 117.884 169.167C117.832 169.376 117.724 169.733 117.532 170.179C115.869 170.545 114.248 170.677 112.98 170.526C108.856 170.027 112.98 87.7392 112.98 87.7392C114.455 86.704 115.62 86.1199 116.536 85.854C117.87 97.9248 118.636 109.981 119.556 122.176L119.847 133.406C119.951 137.314 119.97 140.909 119.847 144.817H119.852Z" fill="#00B6ED"/>
</svg>

