<svg viewBox="-5 0 272 282" fill="none" xmlns="http://www.w3.org/2000/svg">
  <path d="M119.648 438.907L101.409 445.273C58.7863 458.005 12.6106 456.656 -29.1345 442.207C-48.0633 435.654 -64.9744 428.999 -81.5505 417.878C-104.622 402.396 -125.434 384.002 -141.936 361.578C-150.757 349.59 -159.96 338.643 -166.019 324.851C-184.191 283.477 -189.332 237.071 -181.369 192.684L-177.273 169.85C-170.282 130.87 -146.373 89.7101 -117.565 63.1533L-105.138 51.6961C-89.6341 37.4081 -71.6706 26.7894 -52.4871 17.6531C-24.7039 4.41829 5.53244 -1.69935 36.3185 0.406952C41.0909 0.735642 44.8914 0.681959 49.6369 0.386808C78.7607 -1.40422 106.819 5.73303 133.248 17.5391C153.497 26.5881 172.144 36.9117 188.459 51.7699C223.548 83.7199 252.645 126.684 260.749 173.922L263.986 185.466C271.5 231.785 264.261 279.217 245.265 321.839C241.78 329.654 237.068 335.618 231.357 340.904C221.98 383.747 160.079 424.8 119.648 438.907ZM-34.108 66.3395C-13.4432 46.1821 10.3518 33.0144 37.5853 28.1511L37.4043 11.0927C-14.7302 7.68505 -58.037 27.5675 -98.0796 58.8601C-101.552 63.596 -102.477 68.9624 -101.438 75.5228C-79.7072 67.0439 -57.9097 66.1517 -34.108 66.3395ZM186.2 65.6218C178.814 56.3917 170.515 50.6027 161.252 44.7332C128.167 23.7976 88.4797 8.93276 48.712 10.9519L48.2696 29.05C74.3435 36.7843 97.1733 49.6569 116.605 69.1502C140.681 67.1311 164.664 70.579 187.031 80.9764C187.614 76.3412 188.559 68.5733 186.193 65.6218H186.2ZM-122.042 229.229C-99.9229 226.009 -79.8212 223.454 -58.4325 221.897C-47.4935 193.167 -32.687 166.51 -13.4767 141.737C-22.2976 120.379 -30.4952 100.02 -37.4661 77.401C-55.3827 76.6162 -73.3664 78.3133 -90.6127 83.0893C-96.223 85.0615 -101.257 87.2349 -105.037 91.2933C-129.415 118.809 -151.407 151.672 -141.5 188.74C-138.491 203.578 -132.673 217.618 -122.035 229.243L-122.042 229.229ZM203.942 230.524C219.835 213.969 227.523 189.545 228.703 167.918C222.328 138.732 205.913 114.1 185.724 92.769C164.764 81.4459 141.626 78.0047 118.575 80.3391C110.82 101.55 101.892 120.661 92.3004 140.744C109.708 166.825 125.345 192.771 137.477 221.676C159.463 224.031 180.777 226.734 203.949 230.524H203.942ZM-4.03247 303.916C26.901 306.666 55.0997 306.827 84.0626 303.855C102.22 279.19 115.7 253.935 127.879 226.459C115.519 197.386 100.069 171.608 82.5075 145.668C52.9213 142.871 24.1797 143.917 -4.45476 147.808C-23.5913 172.513 -37.9956 197.95 -48.7067 226.801L-33.8399 257.168C-25.6289 273.938 -16.2182 289.393 -4.03247 303.916ZM-132.619 319.955L-135.019 310.986C-136.453 287.26 -137.03 258.979 -130.836 236.34C-145.113 218.818 -153.257 197.038 -154.222 173.573C-164.706 175.954 -169.196 183.964 -170.986 194.14C-178.125 234.69 -173.801 276.467 -158.753 314.836C-156.803 319.807 -153.633 323.926 -150.274 327.977L-132.626 319.955H-132.619ZM226.585 331.009C230.693 325.623 233.844 321.323 236.304 315.702C253.785 275.729 259.897 232.355 254.146 188.981C250.366 183.367 244.769 179.315 239.072 176.277C235.761 199.11 227.938 220.073 212.991 236.836C215.129 244.309 216.175 251.426 216.39 259.2C216.986 280.673 215.813 301.36 210.25 321.793L226.591 331.009H226.585ZM84.4245 419.89C103.146 406.38 116.082 389.235 124.956 368.473L83.9084 314.937C54.1815 317.654 25.2789 318.09 -3.8649 314.568C-17.6392 333.605 -31.5475 350.483 -46.7428 368.48C-43.9209 375.356 -40.4958 381.359 -36.5545 387.49C-26.688 399.893 -16.0707 410.593 -3.24823 420.071C25.4934 428.899 55.3075 429.04 84.4245 419.883V419.89ZM-16.1042 424.284L-33.9337 407.245C-43.8472 396.553 -52.1855 385.19 -57.2126 371.391C-84.0037 363.697 -108.006 350.858 -126.587 329.399L-142.834 336.564C-136.741 355.124 -120.366 372.344 -104.849 386.223C-83.5345 405.293 -59.887 420.943 -32.2111 429.227C-26.5874 430.911 -19.6701 427.383 -16.1109 424.277L-16.1042 424.284ZM113.059 429.865C132.913 423.056 150.146 413.169 167.137 401.933C188.01 388.128 214.526 363.556 220.753 340.132L204.633 331.157C184.196 350.382 162.318 368.373 134.669 373.202C125.808 394.373 112.007 412.055 94.2442 425.941C99.0367 431.153 105.76 432.373 113.066 429.871L113.059 429.865Z" fill="#02587B"/>
</svg>
