<svg width="125.815" height="90.1189" viewBox="0 0 125.815 90.1189" fill="none" xmlns="http://www.w3.org/2000/svg">
<path id="Exclude" d="M42.8678 0.0818212C44.2343 -0.0523944 46.8068 0.0188181 48.2643 0.0193212L58.1266 0.0232275L73.0309 0.0173681C80.1117 0.0163533 87.734 -0.291074 94.5533 2.04081C104.559 5.4455 112.769 12.7426 117.323 22.2801C118.338 24.3648 119.817 28.052 120.244 30.2996C121.749 38.6683 122.91 47.0306 123.864 55.4998C124.519 62.573 127.18 70.7437 124.922 77.7019C121.903 87.0079 111.557 92.4432 102.265 89.1531C99.4533 88.1561 96.9332 86.4753 94.9332 84.2615C92.8638 81.9328 91.6194 79.3391 90.235 76.5877C87.45 71.0526 84.3778 65.5575 81.7272 59.9656C81.2179 58.8962 81.068 58.6386 79.8541 58.6355C76.095 58.626 72.3362 58.6522 68.5768 58.6512L44.9039 58.6521L38.024 72.0808C36.1214 75.8078 33.884 80.9473 31.1949 84.033C24.6636 91.5273 13.5636 92.1382 6.17931 85.5008C2.51528 82.2427 0.298574 77.6597 0.0191547 72.7644C-0.126759 69.9599 0.599196 66.7683 0.901967 63.9558C1.44272 58.9317 2.1605 54.0505 2.93419 49.0613C3.57871 43.8828 4.2349 38.8073 5.10607 33.6609C6.46948 25.6069 9.4584 18.9208 14.9879 12.826C22.4267 4.62711 31.8561 0.621523 42.8678 0.0818212ZM95.8238 42.5017C95.2192 39.288 92.1412 37.1587 88.9205 37.7264C86.8043 38.0995 85.0514 39.5814 84.3317 41.6062C83.6119 43.6312 84.0357 45.8874 85.442 47.5125C86.8483 49.1377 89.0201 49.8811 91.1276 49.4598C94.3345 48.8184 96.4285 45.7159 95.8238 42.5017ZM31.5641 18.1502L31.5758 27.1922L22.5074 27.2068L22.524 35.9959L31.567 35.9998L31.5807 45.0525L40.3649 45.0408C40.3691 42.0562 40.3366 38.982 40.3854 36.0047L49.4225 35.9842L49.4293 27.2078L40.3717 27.1961L40.3727 18.1512C37.4558 18.1493 34.4757 18.1165 31.5641 18.1502ZM83.9791 31.0926C83.7004 27.8093 80.8214 25.3681 77.5367 25.6297C74.2278 25.8933 71.7638 28.7988 72.0445 32.1062C72.3254 35.4135 75.2436 37.861 78.5494 37.5633C81.8314 37.2676 84.2579 34.3761 83.9791 31.0926ZM101.586 25.6267C98.2821 25.8338 95.7739 28.684 95.9879 31.9871C96.2022 35.29 99.0575 37.7922 102.36 37.5711C105.652 37.3505 108.145 34.5057 107.931 31.2127C107.717 27.9196 104.879 25.4203 101.586 25.6267ZM95.8844 18.8982C95.4796 15.6465 92.5304 13.3277 89.275 13.7019C85.9763 14.0813 83.6198 17.0788 84.0299 20.3738C84.44 23.669 87.4594 25.9973 90.7506 25.5564C93.9985 25.1214 96.289 22.1501 95.8844 18.8982Z" fill="#00577a"/>
</svg>
