<svg preserveAspectRatio="none" width="100%" height="100%" overflow="visible" style="display: block;" viewBox="0 0 130.71 89.8019" fill="none" xmlns="http://www.w3.org/2000/svg">
<g id="Group 1000005836">
<path id="Exclude" d="M56.1758 0.0391342C58.5238 -0.188328 60.9135 0.620318 63.1036 1.31355C68.4515 2.99148 73.2836 5.722 77.9805 8.72468C78.8351 9.27105 82.4579 12.069 83.086 12.1817C86.5644 12.8057 90.5277 12.7319 93.92 13.962C95.3936 14.4968 92.3499 18.1476 92.0792 19.0079C90.6713 21.7033 89.582 24.2653 88.5997 27.1358C84.9409 37.7629 84.6423 49.2599 87.7452 60.0626C88.7291 63.5171 90.2114 66.9782 91.7784 70.168C92.2269 71.0804 94.8458 75.0772 94.0909 75.6563C93.143 76.3821 88.7747 76.8324 87.3985 76.9678C85.5183 77.1528 83.7705 76.9567 82.0772 78.0518C76.0414 82.5777 69.3948 86.5985 62.1143 88.7384C59.9095 89.342 57.1057 90.5252 54.9708 89.1944C51.1877 86.8339 54.4532 81.1353 55.212 77.7022C56.121 73.5897 56.7198 74.5426 52.5811 72.7667C48.4922 71.012 44.575 68.5794 40.9473 66.0801C39.5459 65.121 38.1716 64.1224 36.8262 63.086C35.3563 61.9458 32.032 59.0316 30.6055 58.5343C28.9816 58.9619 27.5619 60.3925 26.2061 61.3458C25.2405 62.0247 24.2254 62.6693 23.2139 63.2774C22.5023 63.7052 21.7221 64.0513 20.9766 64.419C17.6693 66.0504 14.2562 67.3233 10.668 68.1827C9.74814 68.403 8.82337 68.5694 7.89849 68.7637C5.90714 69.1823 3.67593 69.8211 1.80767 68.6485C0.908078 68.0837 0.302574 67.1521 0.0840381 66.1192C-0.465736 63.5208 2.72702 55.6193 3.97271 53.0841C5.04542 50.9012 6.26316 48.873 7.56841 46.8253C7.96898 46.1968 8.62054 45.3299 8.45123 44.5567C8.15122 43.1877 6.35418 41.1257 5.62408 39.7569C3.30302 35.4052 1.2191 30.6802 0.165093 25.8419C-0.0991612 24.6284 -0.107148 23.3053 0.599663 22.2305C1.12959 21.4249 2.00603 20.6942 2.96783 20.505C4.58156 20.1875 6.50087 20.5828 8.08599 20.9044C13.5319 22.0095 18.7795 23.8378 23.6075 26.6134C24.7518 27.2713 25.9221 28.0581 26.9786 28.8507C27.6282 29.3379 28.2468 29.875 28.92 30.3292C29.5339 30.7433 30.1623 31.1698 30.9356 31.005C32.0403 30.7692 35.8044 27.4582 36.9864 26.5557C40.8645 23.5439 44.9882 20.8618 49.3135 18.5382C50.2488 18.0374 55.5159 15.8416 55.7403 15.4444C56.261 14.5219 54.331 9.10047 53.9708 7.86238C53.4283 5.99801 52.6043 3.78911 53.6387 1.95124C54.199 0.955974 55.0956 0.344429 56.1758 0.0391342ZM103.159 16.7364C104.433 16.8394 107.606 18.4399 108.77 19.0372C115.57 22.5281 121.986 27.677 126.385 33.9903C128.759 37.3981 131.361 42.3974 130.564 46.6983C130.055 49.1524 129.057 51.354 127.827 53.4971C124.715 58.9214 120.25 63.3077 115.158 66.8995C113.25 68.359 105.25 73.0372 103.196 72.9815C102.922 72.974 102.71 72.8079 102.529 72.6173C101.696 71.7372 101.152 70.2105 100.55 69.1456C99.5922 67.4503 98.6219 65.7338 97.8282 63.9522C95.192 58.0322 93.5798 50.8116 93.7667 44.3135C94.0151 35.6935 96.2559 27.7455 100.741 20.3653C101.487 19.1392 102.108 17.7287 103.159 16.7364ZM110.203 40.1876C109.876 37.97 107.811 36.4399 105.595 36.7725C103.386 37.1042 101.863 39.1611 102.189 41.3712C102.515 43.5814 104.568 45.1102 106.778 44.7891C108.996 44.467 110.531 42.4052 110.203 40.1876Z" fill="#00577a"/>
</g>
</svg>
