<svg preserveAspectRatio="none" width="100%" height="100%" overflow="visible" style="display: block;" viewBox="0 0 111.498 111.457" fill="none" xmlns="http://www.w3.org/2000/svg">
<g id="Group 1000005837">
<path id="Vector" d="M25.9527 0.0923371C27.4055 -0.094044 30.8088 0.0261529 32.2051 0.236236C40.5359 1.48969 46.4885 5.35614 51.5051 11.9098L44.8404 15.652C43.4504 16.4356 41.2438 17.6222 40.0187 18.5895C37.4374 15.1559 32.6386 13.1131 28.4015 13.1086C24.344 13.0757 20.4452 14.6828 17.5895 17.5653C15.4729 19.6689 14.0341 22.3577 13.458 25.2857C13.0377 27.5254 13.1482 31.5069 13.1479 33.8842L13.151 46.5626L13.1496 93.5157L13.152 104.418C13.1525 105.814 13.2641 109.776 12.9598 110.909C12.7055 111.213 12.066 111.425 11.7058 111.389C9.63309 111.183 1.73908 111.837 0.312179 111.084C-0.101759 110.395 0.015389 105.98 0.0150623 104.922L0.0135381 96.0137L0.0164777 67.4602L0.0153888 39.5086L0.0174579 31.7781C0.019091 29.1443 -0.00355473 26.0821 0.434771 23.4931C1.28758 18.5817 3.42216 13.9825 6.62262 10.1606C11.4584 4.35221 18.4214 0.725493 25.9527 0.0923371Z" fill="#00577a"/>
<path id="Vector_2" d="M61.2848 15.6618C62.9079 15.5015 65.3463 15.7486 66.8942 16.2559C72.1949 17.9933 74.5919 20.8067 77.112 25.4671C76.1723 25.8976 74.7626 26.7493 73.8213 27.2813L67.837 30.6653L49.0368 41.3C46.2249 42.875 43.4219 44.4661 40.6281 46.0731C39.0289 43.4056 37.8942 41.1588 37.6165 38.0016C37.2047 33.7832 38.5157 29.5774 41.2514 26.34C42.0464 25.3945 42.9549 24.5504 43.9563 23.8269C45.817 22.4686 48.0528 21.3886 50.053 20.2392C53.9659 17.9908 56.7078 16.0482 61.2848 15.6618Z" fill="#00577a"/>
<path id="Vector_3" d="M85.4328 28.4848C87.9596 28.3286 88.7632 30.2022 89.8666 32.1043C90.3282 32.9425 90.6583 33.788 90.7444 34.7421C90.8827 36.2742 89.8932 37.9669 88.5771 38.725C86.1594 40.1178 83.7123 41.491 81.2793 42.8687L66.171 51.4119L53.4385 58.6143C50.9945 60.0012 48.5228 61.4406 46.0396 62.7563C45.2878 63.1547 44.6021 63.2709 43.7621 63.3091C42.2045 63.0357 41.2531 62.5495 40.2959 61.2384C38.8899 59.3124 36.9218 55.8947 39.7068 54.1811C43.2533 51.999 46.9661 49.9926 50.5979 47.9387L70.5643 36.645L79.7557 31.4462C81.1901 30.6347 83.9767 28.9187 85.4328 28.4848Z" fill="#00577a"/>
<path id="Vector_4" d="M105 62.1285C105.754 62.0334 106.36 62.0236 107.066 62.3897C108.486 63.1676 110.782 64.816 111.3 66.3836C111.987 68.4596 110.807 69.9528 108.894 70.5927C107.025 70.9056 105.835 69.6677 104.497 68.612C101.87 66.5403 101.649 63.5531 105 62.1285Z" fill="#00577a"/>
<path id="Vector_5" d="M61.8276 86.6333C63.9445 86.7555 64.9944 87.8238 65.3884 89.9106C65.9244 92.7491 66.2327 95.6364 62.6897 96.3577C60.3872 96.2341 59.5079 95.0373 59.1265 92.8606C58.6464 90.1214 58.2176 87.1811 61.8276 86.6333Z" fill="#00577a"/>
<path id="Vector_6" d="M89.483 50.7995C91.315 50.6441 92.7787 52.1003 94.0235 53.2503C96.4156 55.4605 95.9486 58.451 92.7068 59.3631C90.9972 59.4897 89.8971 58.458 88.6756 57.4033C87.9207 56.7513 87.1384 55.9509 86.8309 54.978C86.5678 54.1524 86.6469 53.2558 87.0505 52.4892C87.5933 51.4809 88.455 51.1119 89.483 50.7995Z" fill="#00577a"/>
<path id="Vector_7" d="M60.0416 67.247C61.8363 67.1132 63.3964 68.0525 63.8424 69.867C64.5154 72.6058 65.1626 75.8392 61.6718 76.8019C60.0157 76.9315 58.4071 76.0659 57.9829 74.3687C57.2614 71.4822 56.5333 68.4659 60.0416 67.247Z" fill="#00577a"/>
<path id="Vector_8" d="M76.055 78.4638C78.6455 78.2794 79.4918 79.9263 80.3491 82.036C81.3349 84.462 81.2869 86.6598 78.511 87.6942C77.7076 87.7907 77.0379 87.798 76.296 87.3915C74.4836 86.3986 72.8952 82.4465 73.5985 80.4994C74.0022 79.3818 74.9547 78.7603 76.055 78.4638Z" fill="#00577a"/>
<path id="Vector_9" d="M90.544 70.283C92.9573 70.1108 93.7495 71.4292 95.0852 73.1666C96.837 75.4451 96.6935 78.1657 93.6736 79.1279C91.6856 79.4611 90.5761 78.2725 89.4692 76.8065C88.4268 75.426 87.4217 73.8533 88.2635 72.098C88.7581 71.0667 89.5062 70.6444 90.544 70.283Z" fill="#00577a"/>
<path id="Vector_10" d="M74.514 59.0753C77.3741 58.729 78.5488 60.9933 79.5643 63.2481C80.5698 65.48 79.544 67.2107 77.4294 68.0489C74.6828 68.3989 73.4905 66.2067 72.488 64.0528C71.4146 61.7464 72.2895 59.9981 74.514 59.0753Z" fill="#00577a"/>
</g>
</svg>
