<svg preserveAspectRatio="none" width="100%" height="100%" overflow="visible" style="display: block;" viewBox="0 0 125.814 90.1195" fill="none" xmlns="http://www.w3.org/2000/svg">
<path id="Exclude" d="M42.8678 0.0822891C44.2342 -0.0519138 46.8057 0.0182961 48.2633 0.0188125L58.1256 0.0236953L73.0299 0.0178359C80.1109 0.0168296 87.7339 -0.290707 94.5533 2.04127C104.559 5.446 112.768 12.7431 117.322 22.2805C118.337 24.3651 119.816 28.0514 120.243 30.2991C121.748 38.668 122.909 47.0309 123.863 55.5003C124.518 62.5733 127.18 70.7433 124.922 77.7014C121.904 87.0077 111.556 92.4439 102.264 89.1536C99.4523 88.1566 96.9332 86.4748 94.9332 84.261C92.8639 81.9324 91.6193 79.3395 90.235 76.5881C87.45 71.0531 84.3768 65.558 81.7262 59.9661C81.217 58.8968 81.0677 58.6381 79.8541 58.635C76.0949 58.6255 72.3353 58.6526 68.5758 58.6516H44.9039L38.024 72.0813C36.1214 75.8082 33.8839 80.9468 31.1949 84.0325C24.6638 91.5271 13.5637 92.1385 6.17931 85.5012C2.51534 82.2432 0.29863 77.66 0.0191547 72.7649C-0.126759 69.9603 0.599196 66.7688 0.901967 63.9563C1.44272 58.9321 2.15952 54.051 2.93322 49.0618C3.57775 43.8831 4.23389 38.807 5.10509 33.6604C6.4685 25.6066 9.45768 18.9211 14.9869 12.8264C22.4258 4.62746 31.856 0.621922 42.8678 0.0822891ZM95.8238 42.5022C95.2193 39.2881 92.1404 37.1589 88.9195 37.7268C86.8033 38.1001 85.0503 39.5817 84.3307 41.6067C83.6109 43.6316 84.0357 45.8879 85.442 47.513C86.8482 49.1378 89.0194 49.8814 91.1266 49.4602C94.3337 48.819 96.4285 45.7165 95.8238 42.5022ZM31.5641 18.1506L31.5758 27.1917L22.5074 27.2073L22.5231 35.9964L31.567 36.0003L31.5797 45.053L40.3649 45.0413C40.3691 42.0567 40.3366 38.9825 40.3854 36.0051L49.4225 35.9846L49.4293 27.2083L40.3707 27.1965L40.3727 18.1516C37.4559 18.1497 34.4756 18.1169 31.5641 18.1506ZM83.9791 31.093C83.7005 27.8095 80.8207 25.3683 77.5358 25.6301C74.227 25.8939 71.764 28.7985 72.0445 32.1057C72.3252 35.4131 75.2426 37.8613 78.5485 37.5637C81.8306 37.2683 84.2579 34.3767 83.9791 31.093ZM101.586 25.6272C98.2823 25.8342 95.7742 28.6837 95.9879 31.9866C96.202 35.2896 99.0565 37.7916 102.359 37.5706C105.652 37.3502 108.145 34.5062 107.931 31.2131C107.717 27.9202 104.879 25.421 101.586 25.6272ZM95.8844 18.8987C95.4797 15.6469 92.5305 13.3282 89.275 13.7024C85.9761 14.0817 83.6198 17.0791 84.0299 20.3743C84.4401 23.6692 87.4587 25.9965 90.7496 25.5559C93.9976 25.1209 96.289 22.1506 95.8844 18.8987Z" fill="var(--fill-0, #F9F8F8)"/>
</svg>
