<svg preserveAspectRatio="none" width="100%" height="100%" overflow="visible" style="display: block;" viewBox="0 0 59.0555 59.0554" fill="none" xmlns="http://www.w3.org/2000/svg">
<g id="Group 1000005878">
<circle id="Ellipse 24" cx="29.5278" cy="29.5277" r="29.5277" fill="white"/>
<g id="Union">
<mask id="path-2-outside-1_0_10" maskUnits="userSpaceOnUse" x="11.9186" y="5.45882" width="36" height="47" fill="black">
<rect fill="white" x="11.9186" y="5.45882" width="36" height="47"/>
<path d="M28.7154 6.45882C29.0993 6.45907 29.4549 6.77709 29.4645 7.24495V14.4471C29.4647 15.5424 30.3734 16.5068 31.4693 16.5164H37.0729C39.3685 16.5164 41.0933 18.2298 41.0934 20.5428C41.0934 22.7434 39.4253 24.5505 37.1578 24.5506H19.776C18.483 24.5506 17.4424 25.6277 17.3766 26.6951C17.311 27.7627 18.1454 29.0272 19.401 29.0272L43.2486 29.0838C45.4035 29.0841 46.8929 30.8914 46.818 33.0076C46.7428 35.1238 45.1315 36.6687 42.9859 36.6688L16.7965 36.6873C15.4565 36.6873 14.4721 37.9147 14.4439 39.0291C14.4161 40.1434 15.3157 41.4636 16.5992 41.4637L26.2135 41.5106C28.2841 41.5201 29.9615 43.0839 29.9615 45.1815L29.9801 50.4813C29.9801 50.9963 29.6142 51.3154 29.1832 51.2967C28.7523 51.2779 28.4245 50.9685 28.4244 50.491V45.2938C28.4244 44.1607 27.4683 43.0838 26.2877 43.0838L16.7965 43.0653C14.4071 43.0559 12.7952 40.8642 12.9264 38.8133C13.0575 36.7625 14.5661 35.1522 16.7213 35.1522L43.1734 35.1239C43.9697 35.1238 44.569 34.7114 44.9625 34.0467C45.356 33.3818 45.394 32.6139 45.066 31.9491C44.7381 31.2842 44.0818 30.619 43.2291 30.619L19.5045 30.6004C17.3026 30.6004 15.7096 28.7559 15.8219 26.6209C15.9156 24.6825 17.3774 23.0438 19.4107 23.0438L37.2516 22.9969C38.5912 22.9967 39.5187 21.77 39.5377 20.5809C39.5564 19.3916 38.6751 18.118 37.3727 18.118L31.5914 18.0897C29.5489 18.0802 27.9285 16.6006 27.9283 14.5125L27.9088 7.25472C27.9088 6.74903 28.3313 6.45882 28.7154 6.45882Z"/>
</mask>
<path d="M28.7154 6.45882C29.0993 6.45907 29.4549 6.77709 29.4645 7.24495V14.4471C29.4647 15.5424 30.3734 16.5068 31.4693 16.5164H37.0729C39.3685 16.5164 41.0933 18.2298 41.0934 20.5428C41.0934 22.7434 39.4253 24.5505 37.1578 24.5506H19.776C18.483 24.5506 17.4424 25.6277 17.3766 26.6951C17.311 27.7627 18.1454 29.0272 19.401 29.0272L43.2486 29.0838C45.4035 29.0841 46.8929 30.8914 46.818 33.0076C46.7428 35.1238 45.1315 36.6687 42.9859 36.6688L16.7965 36.6873C15.4565 36.6873 14.4721 37.9147 14.4439 39.0291C14.4161 40.1434 15.3157 41.4636 16.5992 41.4637L26.2135 41.5106C28.2841 41.5201 29.9615 43.0839 29.9615 45.1815L29.9801 50.4813C29.9801 50.9963 29.6142 51.3154 29.1832 51.2967C28.7523 51.2779 28.4245 50.9685 28.4244 50.491V45.2938C28.4244 44.1607 27.4683 43.0838 26.2877 43.0838L16.7965 43.0653C14.4071 43.0559 12.7952 40.8642 12.9264 38.8133C13.0575 36.7625 14.5661 35.1522 16.7213 35.1522L43.1734 35.1239C43.9697 35.1238 44.569 34.7114 44.9625 34.0467C45.356 33.3818 45.394 32.6139 45.066 31.9491C44.7381 31.2842 44.0818 30.619 43.2291 30.619L19.5045 30.6004C17.3026 30.6004 15.7096 28.7559 15.8219 26.6209C15.9156 24.6825 17.3774 23.0438 19.4107 23.0438L37.2516 22.9969C38.5912 22.9967 39.5187 21.77 39.5377 20.5809C39.5564 19.3916 38.6751 18.118 37.3727 18.118L31.5914 18.0897C29.5489 18.0802 27.9285 16.6006 27.9283 14.5125L27.9088 7.25472C27.9088 6.74903 28.3313 6.45882 28.7154 6.45882Z" fill="#D23D22"/>
<path d="M28.7154 6.45882L28.7158 5.90046H28.7154V6.45882ZM29.4645 7.24495H30.0229L30.0227 7.23359L29.4645 7.24495ZM29.4645 14.4471H28.9061V14.4472L29.4645 14.4471ZM31.4693 16.5164L31.4644 17.0748H31.4693V16.5164ZM41.0934 20.5428H41.6517V20.5428L41.0934 20.5428ZM37.1578 24.5506V25.109H37.1578L37.1578 24.5506ZM17.3766 26.6951L16.8193 26.6608L16.8193 26.6609L17.3766 26.6951ZM19.401 29.0272L19.4023 28.4688H19.401L19.401 29.0272ZM43.2486 29.0838L43.2473 29.6422H43.2486L43.2486 29.0838ZM46.818 33.0076L47.376 33.0275V33.0274L46.818 33.0076ZM42.9859 36.6688L42.9859 36.1104H42.9855L42.9859 36.6688ZM16.7965 36.6873V37.2457H16.7969L16.7965 36.6873ZM14.4439 39.0291L13.8858 39.0151L13.8858 39.0152L14.4439 39.0291ZM16.5992 41.4637L16.6019 40.9053H16.5992L16.5992 41.4637ZM26.2135 41.5106L26.2108 42.0689H26.2109L26.2135 41.5106ZM29.9615 45.1815H29.4032L29.4032 45.1834L29.9615 45.1815ZM29.9801 50.4813H30.5384L30.5384 50.4793L29.9801 50.4813ZM29.1832 51.2967L29.1588 51.8545L29.159 51.8545L29.1832 51.2967ZM28.4244 50.491H27.8661V50.4911L28.4244 50.491ZM26.2877 43.0838L26.2866 43.6422H26.2877V43.0838ZM16.7965 43.0653L16.7943 43.6236L16.7954 43.6236L16.7965 43.0653ZM12.9264 38.8133L12.3691 38.7777L12.3691 38.7777L12.9264 38.8133ZM16.7213 35.1522V35.7105H16.7219L16.7213 35.1522ZM43.1734 35.1239L43.1734 34.5655H43.1728L43.1734 35.1239ZM44.9625 34.0467L45.443 34.3312L45.443 34.3311L44.9625 34.0467ZM45.066 31.9491L45.5668 31.7021L45.5668 31.7021L45.066 31.9491ZM43.2291 30.619L43.2287 31.1773H43.2291V30.619ZM19.5045 30.6004L19.5049 30.0421H19.5045V30.6004ZM15.8219 26.6209L16.3795 26.6503L16.3796 26.6479L15.8219 26.6209ZM19.4107 23.0438V23.6021L19.4122 23.6021L19.4107 23.0438ZM37.2516 22.9969L37.2515 22.4385L37.2501 22.4385L37.2516 22.9969ZM39.5377 20.5809L40.096 20.5898V20.5897L39.5377 20.5809ZM37.3727 18.118L37.3699 18.6764H37.3727V18.118ZM31.5914 18.0897L31.5941 17.5313H31.594L31.5914 18.0897ZM27.9283 14.5125L28.4867 14.5125L28.4867 14.511L27.9283 14.5125ZM27.9088 7.25472H27.3504L27.3504 7.25622L27.9088 7.25472ZM28.7154 6.45882L28.7151 7.01718C28.7852 7.01723 28.9027 7.0821 28.9062 7.25632L29.4645 7.24495L30.0227 7.23359C30.0072 6.47209 29.4135 5.90092 28.7158 5.90046L28.7154 6.45882ZM29.4645 7.24495H28.9061V14.4471H29.4645H30.0228V7.24495H29.4645ZM29.4645 14.4471L28.9061 14.4472C28.9064 15.8321 30.0455 17.0623 31.4644 17.0748L31.4693 16.5164L31.4742 15.9581C30.7012 15.9513 30.023 15.2527 30.0228 14.447L29.4645 14.4471ZM31.4693 16.5164V17.0748H37.0729V16.5164V15.9581H31.4693V16.5164ZM37.0729 16.5164V17.0748C39.0606 17.0748 40.5349 18.5387 40.535 20.5428L41.0934 20.5428L41.6517 20.5428C41.6516 17.921 39.6764 15.9581 37.0729 15.9581V16.5164ZM41.0934 20.5428H40.535C40.535 22.4547 39.0976 23.9921 37.1578 23.9923L37.1578 24.5506L37.1578 25.109C39.7529 25.1088 41.6517 23.0321 41.6517 20.5428H41.0934ZM37.1578 24.5506V23.9923H19.776V24.5506V25.109H37.1578V24.5506ZM19.776 24.5506V23.9923C18.19 23.9923 16.9033 25.2968 16.8193 26.6608L17.3766 26.6951L17.9339 26.7295C17.9814 25.9586 18.776 25.109 19.776 25.109V24.5506ZM17.3766 26.6951L16.8193 26.6609C16.7773 27.3429 17.0198 28.0599 17.4562 28.6089C17.8981 29.1648 18.5713 29.5855 19.401 29.5855L19.401 29.0272L19.401 28.4688C18.9751 28.4688 18.6033 28.2573 18.3304 27.9141C18.0521 27.5639 17.9102 27.1149 17.9339 26.7294L17.3766 26.6951ZM19.401 29.0272L19.3997 29.5855L43.2473 29.6422L43.2486 29.0838L43.25 28.5255L19.4023 28.4688L19.401 29.0272ZM43.2486 29.0838L43.2486 29.6422C45.0407 29.6424 46.3254 31.1389 46.26 32.9879L46.818 33.0076L47.376 33.0274C47.4604 30.6439 45.7663 28.5258 43.2487 28.5255L43.2486 29.0838ZM46.818 33.0076L46.26 32.9878C46.1956 34.7988 44.8355 36.1104 42.9859 36.1104L42.9859 36.6688L42.986 37.2271C45.4275 37.2271 47.29 35.4488 47.376 33.0275L46.818 33.0076ZM42.9859 36.6688L42.9855 36.1104L16.7961 36.129L16.7965 36.6873L16.7969 37.2457L42.9863 37.2271L42.9859 36.6688ZM16.7965 36.6873V36.129C15.1068 36.129 13.9203 37.647 13.8858 39.0151L14.4439 39.0291L15.0021 39.0432C15.0238 38.1825 15.8063 37.2457 16.7965 37.2457V36.6873ZM14.4439 39.0291L13.8858 39.0152C13.8682 39.7171 14.1385 40.4534 14.5967 41.0166C15.0592 41.5851 15.753 42.022 16.5992 42.0221L16.5992 41.4637L16.5992 40.9053C16.162 40.9053 15.7642 40.6821 15.4629 40.3119C15.1575 39.9364 14.9918 39.4554 15.0021 39.0431L14.4439 39.0291ZM16.5992 41.4637L16.5965 42.0221L26.2108 42.0689L26.2135 41.5106L26.2162 40.9522L16.6019 40.9054L16.5992 41.4637ZM26.2135 41.5106L26.2109 42.0689C27.9956 42.0772 29.4032 43.4123 29.4032 45.1815H29.9615H30.5199C30.5199 42.7556 28.5726 40.9631 26.216 40.9522L26.2135 41.5106ZM29.9615 45.1815L29.4032 45.1834L29.4217 50.4832L29.9801 50.4813L30.5384 50.4793L30.5199 45.1795L29.9615 45.1815ZM29.9801 50.4813H29.4217C29.4217 50.602 29.3816 50.6619 29.3533 50.6895C29.3232 50.7189 29.2759 50.7419 29.2074 50.7389L29.1832 51.2967L29.159 51.8545C29.9177 51.8875 30.5384 51.304 30.5384 50.4813H29.9801ZM29.1832 51.2967L29.2076 50.7389C29.1208 50.7351 29.0698 50.7046 29.0421 50.6762C29.0165 50.6499 28.9828 50.5969 28.9828 50.491L28.4244 50.491L27.8661 50.4911C27.8661 50.8626 27.9963 51.2031 28.2424 51.4555C28.4864 51.7059 28.8147 51.8395 29.1588 51.8545L29.1832 51.2967ZM28.4244 50.491H28.9828V45.2938H28.4244H27.8661V50.491H28.4244ZM28.4244 45.2938H28.9828C28.9828 43.8848 27.8082 42.5255 26.2877 42.5255V43.0838V43.6422C27.1284 43.6422 27.8661 44.4366 27.8661 45.2938H28.4244ZM26.2877 43.0838L26.2888 42.5255L16.7976 42.5069L16.7965 43.0653L16.7954 43.6236L26.2866 43.6422L26.2877 43.0838ZM16.7965 43.0653L16.7987 42.5069C14.7802 42.499 13.3696 40.6305 13.4836 38.849L12.9264 38.8133L12.3691 38.7777C12.2207 41.0978 14.0339 43.6128 16.7943 43.6236L16.7965 43.0653ZM12.9264 38.8133L13.4836 38.849C13.5979 37.0622 14.8897 35.7105 16.7213 35.7105V35.1522V34.5938C14.2426 34.5938 12.5172 36.4628 12.3691 38.7777L12.9264 38.8133ZM16.7213 35.1522L16.7219 35.7105L43.174 35.6822L43.1734 35.1239L43.1728 34.5655L16.7207 34.5938L16.7213 35.1522ZM43.1734 35.1239L43.1735 35.6822C44.1997 35.6821 44.9668 35.1356 45.443 34.3312L44.9625 34.0467L44.482 33.7623C44.1712 34.2873 43.7398 34.5654 43.1734 34.5655L43.1734 35.1239ZM44.9625 34.0467L45.443 34.3311C45.9277 33.5122 45.9823 32.5445 45.5668 31.7021L45.066 31.9491L44.5653 32.1961C44.8056 32.6833 44.7843 33.2515 44.482 33.7623L44.9625 34.0467ZM45.066 31.9491L45.5668 31.7021C45.1951 30.9485 44.3882 30.0606 43.2291 30.0606V30.619V31.1773C43.7754 31.1773 44.2811 31.6199 44.5653 32.1961L45.066 31.9491ZM43.2291 30.619L43.2295 30.0606L19.5049 30.0421L19.5045 30.6004L19.5041 31.1588L43.2287 31.1773L43.2291 30.619ZM19.5045 30.6004V30.0421C17.6472 30.0421 16.2827 28.491 16.3795 26.6503L15.8219 26.6209L15.2643 26.5916C15.1365 29.0208 16.958 31.1588 19.5045 31.1588V30.6004ZM15.8219 26.6209L16.3796 26.6479C16.4609 24.9648 17.7158 23.6021 19.4107 23.6021V23.0438V22.4854C17.039 22.4854 15.3702 24.4001 15.2642 26.594L15.8219 26.6209ZM19.4107 23.0438L19.4122 23.6021L37.253 23.5553L37.2516 22.9969L37.2501 22.4385L19.4093 22.4854L19.4107 23.0438ZM37.2516 22.9969L37.2516 23.5553C38.967 23.555 40.0734 22.0076 40.096 20.5898L39.5377 20.5809L38.9794 20.572C38.9641 21.5323 38.2154 22.4384 37.2515 22.4385L37.2516 22.9969ZM39.5377 20.5809L40.096 20.5897C40.1075 19.8614 39.846 19.1181 39.3834 18.5506C38.916 17.9773 38.2202 17.5596 37.3727 17.5596V18.118V18.6764C37.8276 18.6764 38.2237 18.8955 38.5179 19.2563C38.8168 19.623 38.9867 20.1111 38.9794 20.5721L39.5377 20.5809ZM37.3727 18.118L37.3754 17.5596L31.5941 17.5313L31.5914 18.0897L31.5887 18.648L37.3699 18.6764L37.3727 18.118ZM31.5914 18.0897L31.594 17.5313C29.8331 17.5232 28.4868 16.2681 28.4867 14.5125L27.9283 14.5125L27.37 14.5126C27.3702 16.9331 29.2647 18.6373 31.5888 18.648L31.5914 18.0897ZM27.9283 14.5125L28.4867 14.511L28.4671 7.25322L27.9088 7.25472L27.3504 7.25622L27.37 14.514L27.9283 14.5125ZM27.9088 7.25472H28.4671C28.4671 7.17065 28.4974 7.12123 28.5378 7.08555C28.5875 7.0416 28.657 7.01718 28.7154 7.01718V6.45882V5.90046C28.0898 5.90046 27.3504 6.37776 27.3504 7.25472H27.9088Z" fill="#D23D22" mask="url(#path-2-outside-1_0_10)"/>
</g>
</g>
</svg>
