<svg preserveAspectRatio="none" width="100%" height="100%" overflow="visible" style="display: block;" viewBox="0 0 59.0555 59.0555" fill="none" xmlns="http://www.w3.org/2000/svg">
<g id="Group 1000005854">
<circle id="Ellipse 25" cx="29.5278" cy="29.5277" r="29.5277" fill="white"/>
<g id="Union">
<mask id="path-2-outside-1_0_6" maskUnits="userSpaceOnUse" x="6.65503" y="7.74853" width="46" height="43" fill="black">
<rect fill="white" x="6.65503" y="7.74853" width="46" height="43"/>
<path d="M17.4685 9.12743C21.0564 7.95148 24.9237 9.59064 26.5359 12.98C27.356 14.7025 27.5148 16.6381 26.9929 18.4809C26.9183 18.7495 26.5734 19.2495 26.8806 19.4995L38.7634 29.1401C38.9965 29.3343 39.4251 29.1764 39.6394 29.019C42.0811 27.2505 45.2779 27.2325 47.822 28.8716C50.7108 30.733 52.0524 34.2981 51.0925 37.6225C50.4682 39.7802 48.9028 41.4655 46.8806 42.4194C46.5544 42.5676 46.4708 42.7906 46.3962 43.1333C45.8929 45.5409 44.3644 47.597 42.0906 48.5786C38.0366 50.3289 33.3766 48.328 31.8855 44.1606L31.8943 44.1704C31.3072 42.5313 31.2893 40.8638 31.7273 39.2339C31.7927 38.9838 32.0716 38.5117 31.8201 38.271L25.6697 33.103L19.9382 28.4175C19.64 28.1767 19.2857 28.3529 18.9968 28.5288C16.1637 30.2606 12.4731 29.8714 10.0593 27.5933C8.6056 26.2228 7.75712 24.445 7.66382 22.4634C7.51471 19.324 9.30453 16.4988 12.2029 15.2856C12.4264 15.193 12.585 14.9618 12.6316 14.7212C13.1628 12.1374 14.9336 9.9609 17.4685 9.12743ZM25.3523 13.6655C23.8612 10.3687 19.7608 9.10937 16.6667 11.0171C15.1198 11.971 14.1508 13.5638 13.8992 15.3511C13.8152 15.9528 13.5442 16.2587 12.9851 16.4438C11.1495 17.0644 9.9097 18.2221 9.29468 20.2778C8.67985 22.3334 9.09924 24.3521 10.3757 25.9448C12.37 28.4359 15.9116 28.8713 18.5583 27.1675C19.3132 26.686 20.1613 26.7877 20.823 27.3433L32.5378 37.0669C33.1529 37.5762 33.8145 37.3542 33.2087 39.1138C32.603 40.8732 32.6406 42.7159 33.4792 44.3921C34.5976 46.6146 36.8246 47.9572 39.406 47.8276L39.4158 47.8091C42.5282 47.6515 44.8301 45.2537 45.1658 42.2905C45.2217 41.7443 45.4918 41.4293 45.9949 41.2349C48.6415 40.244 50.1984 37.1876 49.9841 34.8354C49.7698 32.4832 48.2972 30.4637 46.1072 29.5561C44.1874 28.7597 42.0532 29.0197 40.3757 30.1958C39.4345 30.8533 38.4925 30.7145 37.6072 30.0015L25.9958 20.5464C25.2503 19.9352 25.0172 19.6848 25.5857 18.2124C26.1542 16.74 25.9953 15.1009 25.3523 13.6655Z"/>
</mask>
<path d="M17.4685 9.12743C21.0564 7.95148 24.9237 9.59064 26.5359 12.98C27.356 14.7025 27.5148 16.6381 26.9929 18.4809C26.9183 18.7495 26.5734 19.2495 26.8806 19.4995L38.7634 29.1401C38.9965 29.3343 39.4251 29.1764 39.6394 29.019C42.0811 27.2505 45.2779 27.2325 47.822 28.8716C50.7108 30.733 52.0524 34.2981 51.0925 37.6225C50.4682 39.7802 48.9028 41.4655 46.8806 42.4194C46.5544 42.5676 46.4708 42.7906 46.3962 43.1333C45.8929 45.5409 44.3644 47.597 42.0906 48.5786C38.0366 50.3289 33.3766 48.328 31.8855 44.1606L31.8943 44.1704C31.3072 42.5313 31.2893 40.8638 31.7273 39.2339C31.7927 38.9838 32.0716 38.5117 31.8201 38.271L25.6697 33.103L19.9382 28.4175C19.64 28.1767 19.2857 28.3529 18.9968 28.5288C16.1637 30.2606 12.4731 29.8714 10.0593 27.5933C8.6056 26.2228 7.75712 24.445 7.66382 22.4634C7.51471 19.324 9.30453 16.4988 12.2029 15.2856C12.4264 15.193 12.585 14.9618 12.6316 14.7212C13.1628 12.1374 14.9336 9.9609 17.4685 9.12743ZM25.3523 13.6655C23.8612 10.3687 19.7608 9.10937 16.6667 11.0171C15.1198 11.971 14.1508 13.5638 13.8992 15.3511C13.8152 15.9528 13.5442 16.2587 12.9851 16.4438C11.1495 17.0644 9.9097 18.2221 9.29468 20.2778C8.67985 22.3334 9.09924 24.3521 10.3757 25.9448C12.37 28.4359 15.9116 28.8713 18.5583 27.1675C19.3132 26.686 20.1613 26.7877 20.823 27.3433L32.5378 37.0669C33.1529 37.5762 33.8145 37.3542 33.2087 39.1138C32.603 40.8732 32.6406 42.7159 33.4792 44.3921C34.5976 46.6146 36.8246 47.9572 39.406 47.8276L39.4158 47.8091C42.5282 47.6515 44.8301 45.2537 45.1658 42.2905C45.2217 41.7443 45.4918 41.4293 45.9949 41.2349C48.6415 40.244 50.1984 37.1876 49.9841 34.8354C49.7698 32.4832 48.2972 30.4637 46.1072 29.5561C44.1874 28.7597 42.0532 29.0197 40.3757 30.1958C39.4345 30.8533 38.4925 30.7145 37.6072 30.0015L25.9958 20.5464C25.2503 19.9352 25.0172 19.6848 25.5857 18.2124C26.1542 16.74 25.9953 15.1009 25.3523 13.6655Z" fill="#D23D22"/>
<path d="M17.4685 9.12743L17.2946 8.59684L17.2941 8.59701L17.4685 9.12743ZM26.5359 12.98L26.0317 13.2198L26.0318 13.22L26.5359 12.98ZM26.9929 18.4809L26.4557 18.3288L26.4549 18.3315L26.9929 18.4809ZM26.8806 19.4995L26.5282 19.9326L26.5288 19.9331L26.8806 19.4995ZM38.7634 29.1401L39.1209 28.7111L39.1152 28.7065L38.7634 29.1401ZM39.6394 29.019L39.3119 28.5668L39.3089 28.569L39.6394 29.019ZM47.822 28.8716L48.1245 28.4022L48.1244 28.4022L47.822 28.8716ZM51.0925 37.6225L51.6289 37.7778L51.629 37.7774L51.0925 37.6225ZM46.8806 42.4194L47.1116 42.9278L47.1188 42.9244L46.8806 42.4194ZM46.3962 43.1333L45.8506 43.0146L45.8497 43.019L46.3962 43.1333ZM42.0906 48.5786L41.8693 48.066L41.8693 48.066L42.0906 48.5786ZM31.8855 44.1606L32.3005 43.7871L31.3598 44.3487L31.8855 44.1606ZM31.8943 44.1704L31.4793 44.5439L32.4199 43.9821L31.8943 44.1704ZM31.7273 39.2339L32.2665 39.3788L32.2675 39.3751L31.7273 39.2339ZM31.8201 38.271L32.2061 37.8676L32.1931 37.8551L32.1793 37.8435L31.8201 38.271ZM25.6697 33.103L26.0289 32.6755L26.0231 32.6707L25.6697 33.103ZM19.9382 28.4175L20.2916 27.9852L20.289 27.983L19.9382 28.4175ZM18.9968 28.5288L18.7064 28.0519L18.7056 28.0524L18.9968 28.5288ZM10.0593 27.5933L10.4426 27.1872L10.4423 27.187L10.0593 27.5933ZM7.66382 22.4634L8.22156 22.4371L8.22155 22.4369L7.66382 22.4634ZM12.2029 15.2856L11.9891 14.7698L11.9873 14.7706L12.2029 15.2856ZM12.6316 14.7212L12.0846 14.6087L12.0834 14.6149L12.6316 14.7212ZM25.3523 13.6655L25.8619 13.4373L25.861 13.4354L25.3523 13.6655ZM16.6667 11.0171L16.3737 10.5418L16.3737 10.5418L16.6667 11.0171ZM13.8992 15.3511L13.3463 15.2732L13.3462 15.2739L13.8992 15.3511ZM12.9851 16.4438L12.8095 15.9138L12.8063 15.9149L12.9851 16.4438ZM9.29468 20.2778L8.75974 20.1178L8.75973 20.1178L9.29468 20.2778ZM10.3757 25.9448L10.8116 25.5959L10.8114 25.5956L10.3757 25.9448ZM18.5583 27.1675L18.2581 26.6967L18.2561 26.698L18.5583 27.1675ZM20.823 27.3433L20.464 27.7709L20.4664 27.7729L20.823 27.3433ZM32.5378 37.0669L32.1812 37.4965L32.1817 37.4969L32.5378 37.0669ZM33.2087 39.1138L32.6808 38.932L32.6808 38.932L33.2087 39.1138ZM33.4792 44.3921L32.9799 44.6419L32.9805 44.6431L33.4792 44.3921ZM39.406 47.8276L39.434 48.3853L39.7519 48.3693L39.9001 48.0877L39.406 47.8276ZM39.4158 47.8091L39.3875 47.2514L39.0698 47.2675L38.9217 47.549L39.4158 47.8091ZM45.1658 42.2905L45.7206 42.3534L45.7212 42.3474L45.1658 42.2905ZM45.9949 41.2349L45.7991 40.7119L45.7935 40.7141L45.9949 41.2349ZM49.9841 34.8354L50.5402 34.7848L50.5402 34.7848L49.9841 34.8354ZM46.1072 29.5561L45.8932 30.0719L45.8934 30.072L46.1072 29.5561ZM40.3757 30.1958L40.6955 30.6535L40.6963 30.653L40.3757 30.1958ZM37.6072 30.0015L37.2546 30.4344L37.2569 30.4363L37.6072 30.0015ZM25.9958 20.5464L25.6419 20.9782L25.6433 20.9793L25.9958 20.5464ZM25.5857 18.2124L25.0648 18.0113L25.0648 18.0113L25.5857 18.2124ZM17.4685 9.12743L17.6424 9.65802C20.9667 8.56849 24.5416 10.0874 26.0317 13.2198L26.5359 12.98L27.0401 12.7401C25.3057 9.09391 21.1462 7.33448 17.2946 8.59684L17.4685 9.12743ZM26.5359 12.98L26.0318 13.22C26.7931 14.819 26.941 16.6151 26.4557 18.3288L26.9929 18.4809L27.5302 18.6331C28.0886 16.661 27.9189 14.5859 27.04 12.7399L26.5359 12.98ZM26.9929 18.4809L26.4549 18.3315C26.4488 18.3535 26.4324 18.3937 26.3877 18.4979C26.3509 18.5834 26.2979 18.7066 26.2589 18.8362C26.1908 19.0624 26.0887 19.5749 26.5282 19.9326L26.8806 19.4995L27.2331 19.0664C27.282 19.1063 27.3081 19.1678 27.3129 19.2102C27.3154 19.2321 27.3092 19.2215 27.3282 19.1582C27.3464 19.0979 27.3744 19.0302 27.4137 18.9386C27.4451 18.8656 27.4997 18.7427 27.5309 18.6304L26.9929 18.4809ZM26.8806 19.4995L26.5288 19.9331L38.4116 29.5737L38.7634 29.1401L39.1152 28.7065L27.2324 19.0659L26.8806 19.4995ZM38.7634 29.1401L38.406 29.5691C38.7167 29.828 39.0945 29.8067 39.3252 29.7574C39.5712 29.7048 39.8039 29.591 39.9699 29.4691L39.6394 29.019L39.3089 28.569C39.2889 28.5837 39.2553 28.6044 39.2123 28.6241C39.1696 28.6436 39.1275 28.6577 39.0917 28.6654C39.0543 28.6734 39.0384 28.6713 39.0413 28.6717C39.0474 28.6725 39.0822 28.679 39.1208 28.7111L38.7634 29.1401ZM39.6394 29.019L39.9669 29.4712C42.213 27.8443 45.1592 27.8202 47.5196 29.341L47.822 28.8716L48.1244 28.4022C45.3966 26.6448 41.9491 26.6566 39.3119 28.5668L39.6394 29.019ZM47.822 28.8716L47.5196 29.3409C50.2008 31.0686 51.4476 34.3798 50.5561 37.4677L51.0925 37.6225L51.629 37.7774C52.6571 34.2164 51.2208 30.3974 48.1245 28.4022L47.822 28.8716ZM51.0925 37.6225L50.5562 37.4673C49.9813 39.4541 48.5363 41.0211 46.6424 41.9144L46.8806 42.4194L47.1188 42.9244C49.2693 41.91 50.9551 40.1063 51.6289 37.7778L51.0925 37.6225ZM46.8806 42.4194L46.6497 41.9111C46.3965 42.0261 46.2025 42.1899 46.0666 42.414C45.9437 42.6167 45.8891 42.8379 45.8506 43.0146L46.3962 43.1333L46.9418 43.252C46.9779 43.0861 47.0024 43.0244 47.0215 42.9929C47.028 42.9822 47.0337 42.9757 47.0415 42.969C47.0503 42.9614 47.0702 42.9466 47.1115 42.9278L46.8806 42.4194ZM46.3962 43.1333L45.8497 43.019C45.3794 45.2687 43.9585 47.164 41.8693 48.066L42.0906 48.5786L42.3119 49.0912C44.7702 48.03 46.4065 45.8131 46.9428 43.2475L46.3962 43.1333ZM42.0906 48.5786L41.8693 48.066C38.1091 49.6894 33.7929 47.8341 32.4112 43.9725L31.8855 44.1606L31.3598 44.3487C32.9603 48.8219 37.9641 50.9684 42.3119 49.0912L42.0906 48.5786ZM31.8855 44.1606L31.4705 44.5342L31.4793 44.5439L31.8943 44.1704L32.3093 43.7969L32.3005 43.7871L31.8855 44.1606ZM31.8943 44.1704L32.4199 43.9821C31.8745 42.4592 31.8554 40.9086 32.2665 39.3788L31.7273 39.2339L31.1881 39.089C30.7232 40.8189 30.7399 42.6033 31.3686 44.3587L31.8943 44.1704ZM31.7273 39.2339L32.2675 39.3751C32.2744 39.3487 32.2898 39.3078 32.3271 39.209C32.3583 39.1264 32.4014 39.011 32.433 38.8889C32.4862 38.6835 32.5713 38.217 32.2061 37.8676L31.8201 38.271L31.434 38.6744C31.383 38.6255 31.3677 38.5671 31.3653 38.5434C31.3642 38.5322 31.3675 38.5491 31.352 38.6089C31.3372 38.6662 31.314 38.7307 31.2824 38.8145C31.2568 38.8821 31.2129 38.994 31.1871 39.0927L31.7273 39.2339ZM31.8201 38.271L32.1793 37.8435L26.0289 32.6755L25.6697 33.103L25.3105 33.5305L31.4609 38.6985L31.8201 38.271ZM25.6697 33.103L26.0231 32.6707L20.2916 27.9852L19.9382 28.4175L19.5848 28.8498L25.3163 33.5353L25.6697 33.103ZM19.9382 28.4175L20.289 27.983C19.9776 27.7317 19.6292 27.7083 19.3431 27.7718C19.0838 27.8293 18.855 27.9614 18.7064 28.0519L18.9968 28.5288L19.2873 29.0057C19.3528 28.9658 19.4108 28.9328 19.4645 28.9072C19.5186 28.8813 19.558 28.868 19.585 28.862C19.6107 28.8563 19.6149 28.8595 19.6054 28.8578C19.5921 28.8553 19.5844 28.8494 19.5875 28.8519L19.9382 28.4175ZM18.9968 28.5288L18.7056 28.0524C16.0879 29.6525 12.6735 29.2928 10.4426 27.1872L10.0593 27.5933L9.67608 27.9993C12.2726 30.45 16.2395 30.8686 19.288 29.0052L18.9968 28.5288ZM10.0593 27.5933L10.4423 27.187C9.08912 25.9112 8.30775 24.2678 8.22156 22.4371L7.66382 22.4634L7.10607 22.4896C7.20648 24.6222 8.12208 26.5343 9.67631 27.9995L10.0593 27.5933ZM7.66382 22.4634L8.22155 22.4369C8.0836 19.5326 9.73612 16.9234 12.4185 15.8007L12.2029 15.2856L11.9873 14.7706C8.87294 16.0741 6.94581 19.1154 7.10609 22.4899L7.66382 22.4634ZM12.2029 15.2856L12.4167 15.8014C12.8496 15.622 13.1057 15.2097 13.1798 14.8274L12.6316 14.7212L12.0834 14.6149C12.0757 14.6547 12.0578 14.6955 12.0343 14.7273C12.0109 14.7591 11.9922 14.7685 11.9891 14.7698L12.2029 15.2856ZM12.6316 14.7212L13.1785 14.8336C13.6735 12.4259 15.3167 10.4227 17.6429 9.65786L17.4685 9.12743L17.2941 8.59701C14.5505 9.4991 12.6521 11.849 12.0847 14.6087L12.6316 14.7212ZM25.3523 13.6655L25.861 13.4354C24.2311 9.83174 19.7542 8.45751 16.3737 10.5418L16.6667 11.0171L16.9598 11.4924C19.7675 9.76123 23.4912 10.9057 24.8435 13.8956L25.3523 13.6655ZM16.6667 11.0171L16.3737 10.5418C14.674 11.5899 13.6191 13.3351 13.3463 15.2732L13.8992 15.3511L14.4521 15.4289C14.6825 13.7925 15.5657 12.352 16.9598 11.4923L16.6667 11.0171ZM13.8992 15.3511L13.3462 15.2739C13.3137 15.5065 13.2537 15.6226 13.1943 15.6927C13.1341 15.7638 13.0291 15.8411 12.8095 15.9138L12.9851 16.4438L13.1607 16.9739C13.5002 16.8614 13.8103 16.6932 14.0463 16.4146C14.2832 16.135 14.4007 15.7973 14.4522 15.4282L13.8992 15.3511ZM12.9851 16.4438L12.8063 15.9149C11.8236 16.2471 10.9742 16.7324 10.2849 17.4303C9.5949 18.1289 9.08927 19.0164 8.75974 20.1178L9.29468 20.2778L9.82961 20.4379C10.1151 19.4836 10.5369 18.7643 11.0794 18.215C11.6227 17.6649 12.311 17.2611 13.1639 16.9728L12.9851 16.4438ZM9.29468 20.2778L8.75973 20.1178C8.09228 22.3494 8.54898 24.5584 9.94004 26.294L10.3757 25.9448L10.8114 25.5956C9.64949 24.1459 9.26743 22.3174 9.82962 20.4378L9.29468 20.2778ZM10.3757 25.9448L9.93985 26.2938C12.1262 29.0247 15.9915 29.4839 18.8606 27.637L18.5583 27.1675L18.2561 26.698C15.8318 28.2586 12.6139 27.847 10.8116 25.5959L10.3757 25.9448ZM18.5583 27.1675L18.8586 27.6382C19.3897 27.2994 19.9721 27.3579 20.464 27.7709L20.823 27.3433L21.182 26.9156C20.3506 26.2176 19.2366 26.0725 18.2581 26.6967L18.5583 27.1675ZM20.823 27.3433L20.4664 27.7729L32.1812 37.4965L32.5378 37.0669L32.8945 36.6372L21.1796 26.9136L20.823 27.3433ZM32.5378 37.0669L32.1817 37.4969C32.3832 37.6638 32.5927 37.7727 32.7134 37.8407C32.7804 37.8784 32.8202 37.9028 32.8492 37.9241C32.8754 37.9434 32.881 37.952 32.8802 37.9508C32.8667 37.9323 32.8969 37.9462 32.8885 38.0911C32.8793 38.2501 32.8262 38.5097 32.6808 38.932L33.2087 39.1138L33.7367 39.2955C33.8942 38.838 33.9855 38.4655 34.0034 38.1555C34.0221 37.8311 33.9621 37.5388 33.7821 37.2922C33.6192 37.0692 33.3959 36.9434 33.2613 36.8676C33.1039 36.779 33 36.7247 32.894 36.6368L32.5378 37.0669ZM33.2087 39.1138L32.6808 38.932C32.0324 40.8153 32.066 42.8155 32.9799 44.6419L33.4792 44.3921L33.9786 44.1422C33.2151 42.6164 33.1736 40.9311 33.7367 39.2955L33.2087 39.1138ZM33.4792 44.3921L32.9805 44.6431C34.197 47.0608 36.6293 48.5261 39.434 48.3853L39.406 47.8276L39.378 47.27C37.0199 47.3883 34.9981 46.1684 33.978 44.1411L33.4792 44.3921ZM39.406 47.8276L39.9001 48.0877L39.9099 48.0691L39.4158 47.8091L38.9217 47.549L38.9119 47.5676L39.406 47.8276ZM39.4158 47.8091L39.444 48.3667C42.8512 48.1943 45.3567 45.5659 45.7206 42.3534L45.1658 42.2905L44.611 42.2277C44.3036 44.9415 42.2053 47.1088 39.3875 47.2514L39.4158 47.8091ZM45.1658 42.2905L45.7212 42.3474C45.7407 42.1569 45.7919 42.0503 45.8482 41.9801C45.9069 41.907 46.007 41.8288 46.1962 41.7556L45.9949 41.2349L45.7935 40.7141C45.4797 40.8354 45.1932 41.0119 44.9771 41.2814C44.7586 41.5539 44.6467 41.8778 44.6103 42.2337L45.1658 42.2905ZM45.9949 41.2349L46.1906 41.7578C47.6572 41.2087 48.7995 40.0973 49.544 38.8281C50.2865 37.5621 50.6595 36.0947 50.5402 34.7848L49.9841 34.8354L49.4281 34.8861C49.523 35.9284 49.2247 37.1652 48.5807 38.2632C47.9386 39.3579 46.9792 40.2701 45.7991 40.7119L45.9949 41.2349ZM49.9841 34.8354L50.5402 34.7848C50.3072 32.2276 48.7042 30.0279 46.3209 29.0403L46.1072 29.5561L45.8934 30.072C47.8903 30.8995 49.2324 32.7388 49.4281 34.8861L49.9841 34.8354ZM46.1072 29.5561L46.3211 29.0404C44.2212 28.1692 41.8858 28.4552 40.0552 29.7386L40.3757 30.1958L40.6963 30.653C42.2207 29.5843 44.1536 29.3502 45.8932 30.0719L46.1072 29.5561ZM40.3757 30.1958L40.056 29.7381C39.6775 30.0024 39.3354 30.0847 39.0204 30.0565C38.6963 30.0274 38.3409 29.8755 37.9574 29.5666L37.6072 30.0015L37.2569 30.4363C37.7588 30.8405 38.317 31.1145 38.9206 31.1687C39.5332 31.2237 40.1327 31.0467 40.6955 30.6535L40.3757 30.1958ZM37.6072 30.0015L37.9597 29.5685L26.3484 20.1134L25.9958 20.5464L25.6433 20.9793L37.2546 30.4344L37.6072 30.0015ZM25.9958 20.5464L26.3498 20.1146C25.9473 19.7846 25.8681 19.6808 25.8399 19.5675C25.8065 19.4334 25.8202 19.1552 26.1066 18.4135L25.5857 18.2124L25.0648 18.0113C24.7827 18.742 24.6288 19.3252 24.7562 19.8372C24.8888 20.3699 25.2989 20.697 25.6419 20.9782L25.9958 20.5464ZM25.5857 18.2124L26.1066 18.4135C26.7389 16.7756 26.553 14.9801 25.8619 13.4373L25.3523 13.6655L24.8427 13.8938C25.4376 15.2217 25.5694 16.7044 25.0648 18.0113L25.5857 18.2124Z" fill="#D23D22" mask="url(#path-2-outside-1_0_6)"/>
</g>
</g>
</svg>
