<svg xmlns="http://www.w3.org/2000/svg" width="32" height="47" viewBox="0 0 32 47" fill="none">
  <mask id="path-1-outside-1_435_132" maskUnits="userSpaceOnUse" x="-0.262695" y="-0.262695" width="32" height="48" fill="black">
    <rect fill="white" x="-0.262695" y="-0.262695" width="32" height="48"/>
    <path d="M5.08722 0.738351C9.18014 0.672939 12.2553 3.68237 13.1243 7.66316L13.7591 12.0645C14.1142 14.522 14.4231 16.7083 16.9554 17.5587C18.058 17.9324 19.1983 18.0817 20.3851 18.1378L26.4769 18.4464C26.617 18.4557 26.8692 18.3905 26.804 18.8106C26.7386 19.2311 25.8231 19.3438 25.0755 19.3438L21.0482 19.3907C17.6935 19.4374 14.423 18.7922 13.2269 15.3721C11.9654 11.7465 13.1054 6.89661 9.52667 3.56062C8.20909 2.33648 6.30199 1.57958 4.4798 2.0655C2.48976 2.59832 1.43385 4.88761 2.013 6.76569C2.27464 7.61602 2.99442 8.1769 3.81671 8.09284C4.23717 8.04613 4.59218 7.79382 4.63898 7.40144C4.67635 7.12112 4.79808 6.80288 4.10675 6.58796C3.4153 6.37305 3.06894 5.81273 3.2464 5.10261C3.45198 4.28031 4.16254 3.73846 5.03156 3.58894C7.66659 3.12173 9.76901 5.40136 10.2737 8.08308C11.0774 12.3629 9.91914 17.6618 12.5823 20.4278C13.5353 21.4183 13.7785 22.8109 12.9749 24.0069C12.4143 24.8385 12.0775 25.7724 12.1614 26.8282L12.3109 28.6885C12.4603 30.52 12.1709 32.23 11.386 33.8839C11.0029 34.6781 10.8442 35.4726 10.1995 36.2481C9.55475 37.0237 9.29247 37.8272 9.4046 38.8458C9.59149 40.4998 9.82524 42.1539 10.4046 43.7051C10.7504 44.6208 11.4235 45.1438 12.4046 44.9757C12.7129 44.9288 13.0964 44.6298 13.0403 44.3028C12.9844 43.9759 13.4977 44.5364 12.4886 43.3311C11.4794 42.1257 11.059 40.5371 11.9935 39.2569C12.6195 38.3973 13.4416 37.7898 14.348 37.2198L16.638 35.7803C17.217 35.4066 17.6746 34.8928 18.1136 34.3604C18.6275 33.7343 19.2262 33.2954 19.9271 32.8936L21.4124 32.043C22.6646 31.0992 23.5337 29.8372 24.2532 28.4542L25.0286 26.9688C25.1595 26.7259 25.6648 26.6888 25.805 26.9317C25.9449 27.1747 25.9351 27.5861 25.8323 27.8663C24.9539 30.2957 23.3188 32.2581 21.179 33.669C20.6651 34.0148 20.4219 34.641 20.7396 35.211L20.7493 35.2012L21.1976 36.005C21.5807 36.6871 21.8426 37.3786 21.7679 38.1915C21.6931 39.0045 21.4597 39.1825 22.4876 40.4346C23.5154 41.6866 24.7396 42.7704 26.0384 43.7608C26.9354 44.4429 28.0098 44.7331 29.0843 44.3594C29.402 44.2473 29.7294 43.8262 29.4398 43.4991C29.2435 43.2749 28.7576 43.1259 28.4212 43.0792C26.2159 42.7428 24.833 40.7987 25.0853 38.5841L25.6546 35.3604C25.8322 34.4633 26.0756 33.6781 26.4027 32.8184C26.5708 32.7811 26.7579 32.7437 26.8607 32.753C26.9634 32.7626 27.0848 33.0335 27.0755 33.1456L26.8607 35.1173L26.3001 38.294C26.188 38.9388 26.1966 39.6402 26.3929 40.2569C26.6172 40.9671 27.2534 41.5746 27.973 41.7989L29.7669 42.3594C30.0471 42.4528 30.2621 42.3969 30.5423 42.9854C30.8226 43.5741 30.7572 44.2002 30.3929 44.7608C29.5986 45.9849 27.4308 45.8819 25.7581 44.8633C24.0854 43.8448 22.6272 42.4716 21.4124 40.9298C20.8704 40.2383 20.6274 39.4246 20.6741 38.5743C20.7394 37.5465 20.4124 36.5469 19.6556 35.8555C19.1417 35.7155 18.5629 35.9401 18.1331 36.211L15.722 37.7335C14.4324 38.5464 12.4233 39.6867 12.6849 41.1632C12.8344 41.9854 13.311 42.5553 13.8343 43.1719C14.4417 43.8821 14.6845 44.9386 13.6566 45.6768C12.6287 46.4149 10.9095 46.0037 10.2366 45.2842C9.56383 44.5647 9.42332 44.6204 8.99347 42.7608C8.5636 40.9012 7.76051 37.9393 8.65753 36.463C9.47048 35.1454 10.3299 33.6222 10.7318 32.3887C11.1336 31.1553 11.1899 29.8844 11.1712 28.5762V25.5489C11.1619 24.764 11.4981 24.0342 11.9466 23.4268C12.489 22.6987 14.8799 24.6511 11.7405 21.2501C8.601 17.8487 10.0772 12.8307 9.14288 8.05573C8.71303 5.85042 6.86265 3.97193 4.95636 4.62605C4.6108 4.73833 4.30255 5.08404 4.37726 5.44831C5.06876 5.73799 5.56424 6.14005 5.70441 6.84089C5.84452 7.54164 5.83485 8.20522 5.1341 8.74714C4.43335 9.28886 3.45243 9.30757 2.5462 8.96198C1.88274 8.70968 1.27478 8.0456 0.994447 7.21394C0.368638 5.37321 0.920439 3.42939 2.26593 2.03718C3.03202 1.23386 3.94755 0.757148 5.08722 0.738351ZM20.6683 21.586C21.0885 21.3435 21.5462 21.3713 21.9944 21.586C22.9196 22.0252 23.1814 23.2966 22.845 24.0255C22.5086 24.7543 21.9757 25.4276 21.3216 25.9415L19.2288 27.586C18.2664 28.3429 17.6776 29.3424 17.1263 30.4356L15.8743 32.921C15.8276 33.0237 15.7993 33.2483 15.4446 33.0899C15.0896 32.9311 15.0707 32.0713 15.2015 31.3985L15.2103 31.4073C15.556 29.6693 16.1544 28.0058 17.1448 26.5294C18.2008 24.969 19.9671 24.1468 20.0325 22.8106C20.0606 22.2873 20.2478 21.829 20.6683 21.586Z"/>
  </mask>
  <path d="M5.08722 0.738351C9.18014 0.672939 12.2553 3.68237 13.1243 7.66316L13.7591 12.0645C14.1142 14.522 14.4231 16.7083 16.9554 17.5587C18.058 17.9324 19.1983 18.0817 20.3851 18.1378L26.4769 18.4464C26.617 18.4557 26.8692 18.3905 26.804 18.8106C26.7386 19.2311 25.8231 19.3438 25.0755 19.3438L21.0482 19.3907C17.6935 19.4374 14.423 18.7922 13.2269 15.3721C11.9654 11.7465 13.1054 6.89661 9.52667 3.56062C8.20909 2.33648 6.30199 1.57958 4.4798 2.0655C2.48976 2.59832 1.43385 4.88761 2.013 6.76569C2.27464 7.61602 2.99442 8.1769 3.81671 8.09284C4.23717 8.04613 4.59218 7.79382 4.63898 7.40144C4.67635 7.12112 4.79808 6.80288 4.10675 6.58796C3.4153 6.37305 3.06894 5.81273 3.2464 5.10261C3.45198 4.28031 4.16254 3.73846 5.03156 3.58894C7.66659 3.12173 9.76901 5.40136 10.2737 8.08308C11.0774 12.3629 9.91914 17.6618 12.5823 20.4278C13.5353 21.4183 13.7785 22.8109 12.9749 24.0069C12.4143 24.8385 12.0775 25.7724 12.1614 26.8282L12.3109 28.6885C12.4603 30.52 12.1709 32.23 11.386 33.8839C11.0029 34.6781 10.8442 35.4726 10.1995 36.2481C9.55475 37.0237 9.29247 37.8272 9.4046 38.8458C9.59149 40.4998 9.82524 42.1539 10.4046 43.7051C10.7504 44.6208 11.4235 45.1438 12.4046 44.9757C12.7129 44.9288 13.0964 44.6298 13.0403 44.3028C12.9844 43.9759 13.4977 44.5364 12.4886 43.3311C11.4794 42.1257 11.059 40.5371 11.9935 39.2569C12.6195 38.3973 13.4416 37.7898 14.348 37.2198L16.638 35.7803C17.217 35.4066 17.6746 34.8928 18.1136 34.3604C18.6275 33.7343 19.2262 33.2954 19.9271 32.8936L21.4124 32.043C22.6646 31.0992 23.5337 29.8372 24.2532 28.4542L25.0286 26.9688C25.1595 26.7259 25.6648 26.6888 25.805 26.9317C25.9449 27.1747 25.9351 27.5861 25.8323 27.8663C24.9539 30.2957 23.3188 32.2581 21.179 33.669C20.6651 34.0148 20.4219 34.641 20.7396 35.211L20.7493 35.2012L21.1976 36.005C21.5807 36.6871 21.8426 37.3786 21.7679 38.1915C21.6931 39.0045 21.4597 39.1825 22.4876 40.4346C23.5154 41.6866 24.7396 42.7704 26.0384 43.7608C26.9354 44.4429 28.0098 44.7331 29.0843 44.3594C29.402 44.2473 29.7294 43.8262 29.4398 43.4991C29.2435 43.2749 28.7576 43.1259 28.4212 43.0792C26.2159 42.7428 24.833 40.7987 25.0853 38.5841L25.6546 35.3604C25.8322 34.4633 26.0756 33.6781 26.4027 32.8184C26.5708 32.7811 26.7579 32.7437 26.8607 32.753C26.9634 32.7626 27.0848 33.0335 27.0755 33.1456L26.8607 35.1173L26.3001 38.294C26.188 38.9388 26.1966 39.6402 26.3929 40.2569C26.6172 40.9671 27.2534 41.5746 27.973 41.7989L29.7669 42.3594C30.0471 42.4528 30.2621 42.3969 30.5423 42.9854C30.8226 43.5741 30.7572 44.2002 30.3929 44.7608C29.5986 45.9849 27.4308 45.8819 25.7581 44.8633C24.0854 43.8448 22.6272 42.4716 21.4124 40.9298C20.8704 40.2383 20.6274 39.4246 20.6741 38.5743C20.7394 37.5465 20.4124 36.5469 19.6556 35.8555C19.1417 35.7155 18.5629 35.9401 18.1331 36.211L15.722 37.7335C14.4324 38.5464 12.4233 39.6867 12.6849 41.1632C12.8344 41.9854 13.311 42.5553 13.8343 43.1719C14.4417 43.8821 14.6845 44.9386 13.6566 45.6768C12.6287 46.4149 10.9095 46.0037 10.2366 45.2842C9.56383 44.5647 9.42332 44.6204 8.99347 42.7608C8.5636 40.9012 7.76051 37.9393 8.65753 36.463C9.47048 35.1454 10.3299 33.6222 10.7318 32.3887C11.1336 31.1553 11.1899 29.8844 11.1712 28.5762V25.5489C11.1619 24.764 11.4981 24.0342 11.9466 23.4268C12.489 22.6987 14.8799 24.6511 11.7405 21.2501C8.601 17.8487 10.0772 12.8307 9.14288 8.05573C8.71303 5.85042 6.86265 3.97193 4.95636 4.62605C4.6108 4.73833 4.30255 5.08404 4.37726 5.44831C5.06876 5.73799 5.56424 6.14005 5.70441 6.84089C5.84452 7.54164 5.83485 8.20522 5.1341 8.74714C4.43335 9.28886 3.45243 9.30757 2.5462 8.96198C1.88274 8.70968 1.27478 8.0456 0.994447 7.21394C0.368638 5.37321 0.920439 3.42939 2.26593 2.03718C3.03202 1.23386 3.94755 0.757148 5.08722 0.738351ZM20.6683 21.586C21.0885 21.3435 21.5462 21.3713 21.9944 21.586C22.9196 22.0252 23.1814 23.2966 22.845 24.0255C22.5086 24.7543 21.9757 25.4276 21.3216 25.9415L19.2288 27.586C18.2664 28.3429 17.6776 29.3424 17.1263 30.4356L15.8743 32.921C15.8276 33.0237 15.7993 33.2483 15.4446 33.0899C15.0896 32.9311 15.0707 32.0713 15.2015 31.3985L15.2103 31.4073C15.556 29.6693 16.1544 28.0058 17.1448 26.5294C18.2008 24.969 19.9671 24.1468 20.0325 22.8106C20.0606 22.2873 20.2478 21.829 20.6683 21.586Z" fill="#A049BB"/>
  <path d="M5.08722 0.738351L5.07544 0.00141048L5.07507 0.00141674L5.08722 0.738351ZM13.1243 7.66316L13.8538 7.55795L13.85 7.53178L13.8444 7.50596L13.1243 7.66316ZM13.7591 12.0645L13.0296 12.1697L13.0296 12.1699L13.7591 12.0645ZM16.9554 17.5587L17.192 16.8606L17.19 16.86L16.9554 17.5587ZM20.3851 18.1378L20.4224 17.4017L20.4199 17.4016L20.3851 18.1378ZM26.4769 18.4464L26.5259 17.7109L26.5142 17.7103L26.4769 18.4464ZM26.804 18.8106L27.5323 18.9239L27.5323 18.9237L26.804 18.8106ZM25.0755 19.3438V18.6067L25.0669 18.6068L25.0755 19.3438ZM21.0482 19.3907L21.0396 18.6537L21.0379 18.6537L21.0482 19.3907ZM13.2269 15.3721L12.5308 15.6143L12.5312 15.6154L13.2269 15.3721ZM9.52667 3.56062L10.0292 3.02149L10.0283 3.02066L9.52667 3.56062ZM4.4798 2.0655L4.28989 1.35335L4.28918 1.35354L4.4798 2.0655ZM2.013 6.76569L2.71744 6.54894L2.71731 6.5485L2.013 6.76569ZM3.81671 8.09284L3.89167 8.82609L3.8981 8.82537L3.81671 8.09284ZM4.63898 7.40144L3.90834 7.30402L3.90713 7.31416L4.63898 7.40144ZM4.10675 6.58796L4.32556 5.88415L4.32551 5.88414L4.10675 6.58796ZM3.2464 5.10261L2.53137 4.92385L2.53136 4.92392L3.2464 5.10261ZM5.03156 3.58894L5.15654 4.31531L5.16023 4.31465L5.03156 3.58894ZM10.2737 8.08308L10.9981 7.94706L10.9981 7.94675L10.2737 8.08308ZM12.5823 20.4278L13.1135 19.9168L13.1133 19.9166L12.5823 20.4278ZM12.9749 24.0069L13.586 24.4189L13.5867 24.4179L12.9749 24.0069ZM12.1614 26.8282L11.4267 26.8866L11.4268 26.8872L12.1614 26.8282ZM12.3109 28.6885L11.5762 28.7476L11.5763 28.7485L12.3109 28.6885ZM11.386 33.8839L12.0499 34.2041L12.0519 34.1999L11.386 33.8839ZM10.1995 36.2481L10.7663 36.7193L10.7663 36.7193L10.1995 36.2481ZM9.4046 38.8458L8.67199 38.9264L8.67223 38.9285L9.4046 38.8458ZM10.4046 43.7051L9.71415 43.963L9.71509 43.9655L10.4046 43.7051ZM12.4046 44.9757L12.294 44.2468L12.2801 44.2492L12.4046 44.9757ZM13.0403 44.3028L12.3139 44.4272L12.3139 44.4273L13.0403 44.3028ZM12.4886 43.3311L13.0537 42.858V42.858L12.4886 43.3311ZM11.9935 39.2569L12.5888 39.6914L12.5892 39.6908L11.9935 39.2569ZM14.348 37.2198L13.9557 36.5958L13.9556 36.5959L14.348 37.2198ZM16.638 35.7803L17.0303 36.4044L17.0377 36.3996L16.638 35.7803ZM18.1136 34.3604L18.6822 34.8293L18.6833 34.8281L18.1136 34.3604ZM19.9271 32.8936L19.5608 32.254L19.5605 32.2542L19.9271 32.8936ZM21.4124 32.043L21.7787 32.6826L21.819 32.6596L21.856 32.6316L21.4124 32.043ZM24.2532 28.4542L23.5999 28.1131L23.5994 28.114L24.2532 28.4542ZM25.0286 26.9688L24.3796 26.6194L24.3753 26.6277L25.0286 26.9688ZM25.805 26.9317L26.4437 26.5639L26.4434 26.5634L25.805 26.9317ZM25.8323 27.8663L25.1403 27.6126L25.1392 27.6157L25.8323 27.8663ZM21.179 33.669L20.7733 33.0537L20.7676 33.0575L21.179 33.669ZM20.7396 35.211L20.0958 35.5698L20.5708 36.4221L21.2607 35.7322L20.7396 35.211ZM20.7493 35.2012L21.393 34.8422L20.9179 33.9903L20.2282 34.6801L20.7493 35.2012ZM21.1976 36.005L20.5539 36.364L20.555 36.3659L21.1976 36.005ZM21.7679 38.1915L22.5018 38.259L22.5018 38.2589L21.7679 38.1915ZM22.4876 40.4346L21.9179 40.9023L21.918 40.9023L22.4876 40.4346ZM26.0384 43.7608L25.5915 44.3469L25.5923 44.3475L26.0384 43.7608ZM29.0843 44.3594L29.3264 45.0556L29.3296 45.0545L29.0843 44.3594ZM29.4398 43.4991L28.8851 43.9845L28.888 43.9878L29.4398 43.4991ZM28.4212 43.0792L28.3101 43.8078L28.3197 43.8092L28.4212 43.0792ZM25.0853 38.5841L24.3595 38.4559L24.3555 38.4781L24.353 38.5006L25.0853 38.5841ZM25.6546 35.3604L24.9316 35.2173L24.9301 35.2248L24.9288 35.2322L25.6546 35.3604ZM26.4027 32.8184L26.2428 32.0989L25.855 32.1851L25.7138 32.5564L26.4027 32.8184ZM26.8607 32.753L26.9294 32.0192L26.9274 32.019L26.8607 32.753ZM27.0755 33.1456L27.8082 33.2254L27.8092 33.2161L27.81 33.2068L27.0755 33.1456ZM26.8607 35.1173L27.5865 35.2453L27.5907 35.2213L27.5934 35.1971L26.8607 35.1173ZM26.3001 38.294L25.5743 38.1659L25.574 38.1677L26.3001 38.294ZM26.3929 40.2569L27.0957 40.035L27.0952 40.0334L26.3929 40.2569ZM27.973 41.7989L28.1928 41.0954L28.1923 41.0952L27.973 41.7989ZM29.7669 42.3594L29.9998 41.66L29.9867 41.656L29.7669 42.3594ZM30.5423 42.9854L31.2077 42.6686L31.2077 42.6685L30.5423 42.9854ZM30.3929 44.7608L29.7749 44.3592L29.7746 44.3596L30.3929 44.7608ZM25.7581 44.8633L25.3748 45.4929L25.3748 45.4929L25.7581 44.8633ZM21.4124 40.9298L20.8323 41.3844L20.8335 41.3859L21.4124 40.9298ZM20.6741 38.5743L19.9386 38.5276L19.9382 38.5339L20.6741 38.5743ZM19.6556 35.8555L20.1527 35.3114L20.0212 35.1913L19.8494 35.1444L19.6556 35.8555ZM18.1331 36.211L17.7401 35.5875L17.7396 35.5878L18.1331 36.211ZM15.722 37.7335L16.115 38.3569L16.1155 38.3567L15.722 37.7335ZM12.6849 41.1632L11.9591 41.2918L11.9597 41.295L12.6849 41.1632ZM13.8343 43.1719L13.2723 43.6488L13.2742 43.651L13.8343 43.1719ZM13.6566 45.6768L14.0864 46.2755L14.0865 46.2755L13.6566 45.6768ZM10.2366 45.2842L9.69829 45.7876L9.69834 45.7877L10.2366 45.2842ZM8.99347 42.7608L9.71157 42.5948L9.71157 42.5948L8.99347 42.7608ZM8.65753 36.463L8.03027 36.0759L8.02765 36.0802L8.65753 36.463ZM10.7318 32.3887L11.4325 32.617L11.4325 32.617L10.7318 32.3887ZM11.1712 28.5762H10.4341L10.4342 28.5868L11.1712 28.5762ZM11.1712 25.5489H11.9083L11.9082 25.5401L11.1712 25.5489ZM11.9466 23.4268L11.3555 22.9865L11.3537 22.989L11.9466 23.4268ZM11.7405 21.2501L11.199 21.75L11.199 21.75L11.7405 21.2501ZM9.14288 8.05573L8.41946 8.19674L8.41957 8.19727L9.14288 8.05573ZM4.95636 4.62605L5.18415 5.3271L5.19557 5.32318L4.95636 4.62605ZM4.37726 5.44831L3.65525 5.59639L3.73346 5.9777L4.09248 6.12811L4.37726 5.44831ZM5.70441 6.84089L6.42714 6.69638L6.42713 6.69635L5.70441 6.84089ZM5.1341 8.74714L5.58487 9.33025L5.58497 9.33017L5.1341 8.74714ZM2.5462 8.96198L2.80883 8.27332L2.80818 8.27308L2.5462 8.96198ZM0.994447 7.21394L1.69287 6.97851L1.69226 6.9767L0.994447 7.21394ZM2.26593 2.03718L2.79592 2.54938L2.79931 2.54584L2.26593 2.03718ZM20.6683 21.586L20.2998 20.9477L20.2996 20.9478L20.6683 21.586ZM21.9944 21.586L21.6761 22.2507L21.6784 22.2518L21.9944 21.586ZM22.845 24.0255L23.5142 24.3343L23.5142 24.3343L22.845 24.0255ZM21.3216 25.9415L20.8662 25.3619L20.8662 25.362L21.3216 25.9415ZM19.2288 27.586L18.7734 27.0065L18.7732 27.0067L19.2288 27.586ZM17.1263 30.4356L16.4682 30.1038L16.468 30.104L17.1263 30.4356ZM15.8743 32.921L15.2161 32.5894L15.2095 32.6026L15.2034 32.616L15.8743 32.921ZM15.4446 33.0899L15.1437 33.7627L15.144 33.7628L15.4446 33.0899ZM15.2015 31.3985L15.7226 30.8773L14.7425 29.8972L14.478 31.2579L15.2015 31.3985ZM15.2103 31.4073L14.6891 31.9285L15.6641 32.9035L15.9331 31.5511L15.2103 31.4073ZM17.1448 26.5294L16.5344 26.1163L16.5328 26.1187L17.1448 26.5294ZM20.0325 22.8106L19.2965 22.7712L19.2964 22.7746L20.0325 22.8106ZM5.08722 0.738351L5.099 1.47529C8.76825 1.41665 11.5933 4.10587 12.4043 7.82035L13.1243 7.66316L13.8444 7.50596C12.9172 3.25887 9.59203 -0.0707723 5.07544 0.0014106L5.08722 0.738351ZM13.1243 7.66316L12.3948 7.76836L13.0296 12.1697L13.7591 12.0645L14.4886 11.9593L13.8538 7.55795L13.1243 7.66316ZM13.7591 12.0645L13.0296 12.1699C13.203 13.3695 13.3795 14.645 13.8703 15.7203C14.3862 16.8507 15.2459 17.7621 16.7208 18.2574L16.9554 17.5587L17.19 16.86C16.1326 16.5049 15.5717 15.898 15.2113 15.1083C14.8257 14.2635 14.6703 13.2171 14.4886 11.9591L13.7591 12.0645ZM16.9554 17.5587L16.7188 18.2567C17.911 18.6608 19.1265 18.8162 20.3503 18.874L20.3851 18.1378L20.4199 17.4016C19.2702 17.3472 18.2051 17.204 17.192 16.8606L16.9554 17.5587ZM20.3851 18.1378L20.3478 18.8739L26.4396 19.1824L26.4769 18.4464L26.5142 17.7103L20.4224 17.4017L20.3851 18.1378ZM26.4769 18.4464L26.4278 19.1818C26.4752 19.1849 26.5199 19.1845 26.5363 19.1845C26.5483 19.1845 26.5541 19.1844 26.56 19.1845C26.5652 19.1845 26.5665 19.1846 26.5656 19.1845C26.5651 19.1845 26.5462 19.1839 26.5172 19.1782C26.4876 19.1724 26.4377 19.1595 26.3794 19.1294C26.3184 19.0979 26.2548 19.0508 26.2001 18.9852C26.1458 18.9202 26.1142 18.8535 26.0969 18.7984C26.066 18.7001 26.0834 18.648 26.0757 18.6975L26.804 18.8106L27.5323 18.9237C27.5572 18.7632 27.5675 18.5617 27.5034 18.3571C27.4291 18.1205 27.2703 17.9304 27.0555 17.8195C26.8743 17.726 26.7013 17.7148 26.627 17.7117C26.5858 17.71 26.5465 17.7104 26.5313 17.7104C26.5074 17.7105 26.5136 17.7101 26.5259 17.711L26.4769 18.4464ZM26.804 18.8106L26.0757 18.6973C26.0881 18.6178 26.1206 18.5536 26.1537 18.5098C26.1691 18.4894 26.1832 18.4753 26.1926 18.4669C26.2021 18.4584 26.208 18.4545 26.2084 18.4543C26.2089 18.454 26.2053 18.4563 26.1967 18.4606C26.1881 18.4649 26.1757 18.4705 26.159 18.4769C26.125 18.4901 26.0793 18.5046 26.0207 18.5189C25.7732 18.5794 25.4247 18.6068 25.0755 18.6068V19.3438V20.0809C25.4739 20.0809 25.9569 20.0519 26.3705 19.9509C26.5746 19.901 26.809 19.8227 27.0145 19.6884C27.2239 19.5516 27.4726 19.3076 27.5323 18.9239L26.804 18.8106ZM25.0755 19.3438L25.0669 18.6068L21.0396 18.6537L21.0482 19.3907L21.0567 20.1277L25.0841 20.0808L25.0755 19.3438ZM21.0482 19.3907L21.0379 18.6537C19.3956 18.6766 17.8603 18.5262 16.6137 18.0021C15.4011 17.4922 14.4455 16.624 13.9226 15.1288L13.2269 15.3721L12.5312 15.6154C13.2044 17.5404 14.4821 18.7048 16.0424 19.3609C17.5688 20.0027 19.346 20.1515 21.0584 20.1277L21.0482 19.3907ZM13.2269 15.3721L13.923 15.1299C13.6338 14.2987 13.4759 13.378 13.3512 12.3752C13.2304 11.4041 13.1355 10.2953 12.9742 9.24583C12.6441 7.09755 11.9965 4.85535 10.0292 3.02149L9.52667 3.56062L9.02412 4.09974C10.6356 5.60188 11.2073 7.45262 11.5173 9.4697C11.676 10.503 11.7563 11.4948 11.8884 12.5571C12.0165 13.5876 12.1892 14.6328 12.5308 15.6143L13.2269 15.3721ZM9.52667 3.56062L10.0283 3.02066C8.58555 1.68019 6.42715 0.783416 4.28989 1.35335L4.4798 2.0655L4.6697 2.77765C6.17683 2.37575 7.83264 2.99276 9.02501 4.10057L9.52667 3.56062ZM4.4798 2.0655L4.28918 1.35354C1.84418 2.00817 0.622624 4.7581 1.3087 6.98289L2.013 6.76569L2.71731 6.5485C2.24507 5.01712 3.13534 3.18846 4.67042 2.77746L4.4798 2.0655ZM2.013 6.76569L1.30856 6.98245C1.6515 8.097 2.64998 8.95299 3.89166 8.82606L3.81671 8.09284L3.74176 7.35963C3.33887 7.40081 2.89778 7.13505 2.71744 6.54894L2.013 6.76569ZM3.81671 8.09284L3.8981 8.82537C4.5187 8.75641 5.26885 8.34381 5.37083 7.48871L4.63898 7.40144L3.90713 7.31416C3.90756 7.31051 3.90961 7.3033 3.91332 7.29694C3.91644 7.2916 3.91652 7.29405 3.90699 7.30169C3.88507 7.31925 3.82884 7.34993 3.73532 7.36032L3.81671 8.09284ZM4.63898 7.40144L5.36955 7.49885C5.37289 7.47381 5.37599 7.45651 5.38358 7.40737C5.38983 7.36694 5.3983 7.30936 5.40344 7.24564C5.41376 7.11796 5.41464 6.92741 5.33899 6.71886C5.17123 6.25635 4.7575 6.01844 4.32556 5.88415L4.10675 6.58796L3.88795 7.29177C3.94748 7.31028 3.98772 7.32667 4.01335 7.33884C4.03896 7.35101 4.04626 7.35721 4.0423 7.35421C4.03767 7.35071 4.02169 7.33767 4.00263 7.31267C3.99324 7.30035 3.98391 7.28617 3.97524 7.27026C3.96657 7.25435 3.95923 7.23795 3.95327 7.2215C3.94116 7.18811 3.93668 7.16012 3.93512 7.14249C3.93367 7.12606 3.9348 7.11907 3.93416 7.12695C3.93387 7.13062 3.93326 7.13668 3.93204 7.14614C3.9308 7.15574 3.92914 7.16715 3.92681 7.18226C3.92564 7.18979 3.92441 7.19759 3.923 7.20648C3.92166 7.21498 3.92008 7.22491 3.91854 7.23479C3.91545 7.25459 3.91181 7.2785 3.90841 7.30403L4.63898 7.40144ZM4.10675 6.58796L4.32551 5.88414C4.12 5.82026 4.02653 5.72598 3.98555 5.65652C3.94711 5.59134 3.91247 5.47726 3.96144 5.2813L3.2464 5.10261L2.53136 4.92392C2.40287 5.43807 2.45268 5.95921 2.71592 6.40546C2.97662 6.84741 3.40206 7.14075 3.888 7.29178L4.10675 6.58796ZM3.2464 5.10261L3.96143 5.28137C4.08013 4.80658 4.5039 4.42759 5.15654 4.3153L5.03156 3.58894L4.90658 2.86258C3.82118 3.04933 2.82383 3.75403 2.53137 4.92385L3.2464 5.10261ZM5.03156 3.58894L5.16023 4.31465C6.21564 4.12752 7.17466 4.48018 7.95183 5.19695C8.73962 5.92351 9.32272 7.0149 9.54943 8.2194L10.2737 8.08308L10.9981 7.94675C10.72 6.46954 9.99956 5.08025 8.9512 4.11337C7.89222 3.13669 6.48251 2.58315 4.90288 2.86322L5.03156 3.58894ZM10.2737 8.08308L9.54937 8.2191C9.74015 9.23512 9.81688 10.3257 9.86255 11.4582C9.90733 12.5689 9.92272 13.7589 9.99523 14.8711C10.1398 17.0889 10.5211 19.3496 12.0514 20.939L12.5823 20.4278L13.1133 19.9166C11.9804 18.74 11.6092 16.9683 11.4662 14.7752C11.3949 13.6819 11.3827 12.5719 11.3354 11.3988C11.289 10.2477 11.2092 9.07094 10.9981 7.94706L10.2737 8.08308ZM12.5823 20.4278L12.0512 20.9388C12.7994 21.7165 12.9458 22.7287 12.3631 23.5959L12.9749 24.0069L13.5867 24.4179C14.6112 22.8931 14.2711 21.1201 13.1135 19.9168L12.5823 20.4278ZM12.9749 24.0069L12.3638 23.5949C11.7348 24.5279 11.3264 25.6252 11.4267 26.8866L12.1614 26.8282L12.8962 26.7698C12.8285 25.9197 13.0939 25.149 13.586 24.4189L12.9749 24.0069ZM12.1614 26.8282L11.4268 26.8872L11.5762 28.7476L12.3109 28.6885L13.0455 28.6295L12.8961 26.7692L12.1614 26.8282ZM12.3109 28.6885L11.5763 28.7485C11.7157 30.4577 11.4466 32.0372 10.7202 33.5679L11.386 33.8839L12.0519 34.1999C12.8953 32.4227 13.2049 30.5822 13.0454 28.6286L12.3109 28.6885ZM11.386 33.8839L10.7222 33.5637C10.526 33.9704 10.3484 34.4657 10.2128 34.7842C10.0595 35.1441 9.89191 35.4652 9.63274 35.777L10.1995 36.2481L10.7663 36.7193C11.1518 36.2555 11.3859 35.7916 11.569 35.3618C11.7696 34.8906 11.863 34.5916 12.0499 34.2041L11.386 33.8839ZM10.1995 36.2481L9.63276 35.777C8.86662 36.6985 8.53689 37.6992 8.672 38.9264L9.4046 38.8458L10.1372 38.7651C10.0481 37.9553 10.2429 37.3489 10.7663 36.7193L10.1995 36.2481ZM9.4046 38.8458L8.67223 38.9285C8.85954 40.5863 9.10038 42.3197 9.71416 43.963L10.4046 43.7051L11.0951 43.4473C10.5501 41.9882 10.3234 40.4133 10.137 38.763L9.4046 38.8458ZM10.4046 43.7051L9.71509 43.9655C9.92542 44.5225 10.26 45.0263 10.7557 45.3589C11.2646 45.7004 11.8742 45.8144 12.5291 45.7021L12.4046 44.9757L12.2801 44.2492C11.9538 44.3051 11.7363 44.2417 11.577 44.1348C11.4044 44.019 11.2296 43.8034 11.0941 43.4448L10.4046 43.7051ZM12.4046 44.9757L12.5152 45.7043C12.8316 45.6563 13.1405 45.4944 13.3678 45.2777C13.5897 45.066 13.8525 44.6782 13.7668 44.1783L13.0403 44.3028L12.3139 44.4273C12.2999 44.3458 12.3172 44.2794 12.3334 44.2425C12.3476 44.2102 12.3596 44.2022 12.3505 44.2109C12.3424 44.2186 12.3274 44.2299 12.3089 44.2393C12.2893 44.2492 12.2822 44.2488 12.294 44.247L12.4046 44.9757ZM13.0403 44.3028L13.7668 44.1784C13.7701 44.1978 13.7901 44.3171 13.734 44.4702C13.6634 44.6629 13.5219 44.7818 13.4022 44.8417C13.3779 44.8539 13.3574 44.8623 13.3438 44.8674C13.3307 44.8724 13.321 44.8755 13.3206 44.8757C13.3019 44.8818 13.3587 44.8645 13.4087 44.8421C13.4643 44.8172 13.6049 44.7478 13.7175 44.5907C13.8446 44.4136 13.8692 44.2217 13.8557 44.0778C13.8361 43.8681 13.73 43.7121 13.7139 43.6868C13.6748 43.6252 13.626 43.5595 13.5751 43.4938C13.4706 43.3591 13.3047 43.1578 13.0537 42.858L12.4886 43.3311L11.9235 43.8043C12.177 44.1071 12.3253 44.2877 12.4102 44.3972C12.4307 44.4235 12.4455 44.4432 12.456 44.4577C12.4668 44.4726 12.4705 44.4784 12.4698 44.4774C12.4693 44.4766 12.4666 44.4723 12.4626 44.4653C12.4588 44.4584 12.4522 44.4462 12.4445 44.4295C12.4332 44.4049 12.3985 44.3266 12.3881 44.215C12.3758 44.0839 12.3979 43.9015 12.5197 43.7316C12.6271 43.5818 12.7598 43.5176 12.8058 43.497C12.8462 43.4789 12.8917 43.465 12.861 43.4751C12.8506 43.4785 12.8004 43.4945 12.7427 43.5234C12.6805 43.5545 12.6004 43.6045 12.5237 43.6843C12.4453 43.766 12.3872 43.8613 12.3499 43.963C12.2804 44.1528 12.2966 44.3261 12.3139 44.4272L13.0403 44.3028ZM12.4886 43.3311L13.0537 42.858C12.1522 41.7812 11.9396 40.5808 12.5888 39.6914L11.9935 39.2569L11.3982 38.8224C10.1784 40.4934 10.8066 42.4702 11.9235 43.8043L12.4886 43.3311ZM11.9935 39.2569L12.5892 39.6908C13.1316 38.9462 13.8577 38.3988 14.7403 37.8437L14.348 37.2198L13.9556 36.5959C13.0255 37.1808 12.1075 37.8484 11.3977 38.823L11.9935 39.2569ZM14.348 37.2198L14.7402 37.8438L17.0302 36.4043L16.638 35.7803L16.2458 35.1563L13.9557 36.5958L14.348 37.2198ZM16.638 35.7803L17.0377 36.3996C17.72 35.9592 18.2388 35.3671 18.6822 34.8293L18.1136 34.3604L17.5449 33.8915C17.1103 34.4186 16.7141 34.854 16.2383 35.1611L16.638 35.7803ZM18.1136 34.3604L18.6833 34.8281C19.1213 34.2945 19.6388 33.9085 20.2937 33.533L19.9271 32.8936L19.5605 32.2542C18.8136 32.6824 18.1338 33.1742 17.5439 33.8928L18.1136 34.3604ZM19.9271 32.8936L20.2933 33.5332L21.7787 32.6826L21.4124 32.043L21.0462 31.4035L19.5608 32.254L19.9271 32.8936ZM21.4124 32.043L21.856 32.6316C23.2313 31.595 24.1623 30.2258 24.9071 28.7943L24.2532 28.4542L23.5994 28.114C22.9051 29.4485 22.0978 30.6035 20.9688 31.4545L21.4124 32.043ZM24.2532 28.4542L24.9066 28.7952L25.682 27.3099L25.0286 26.9688L24.3753 26.6277L23.5999 28.1131L24.2532 28.4542ZM25.0286 26.9688L25.6776 27.3182C25.6198 27.4255 25.5431 27.4716 25.514 27.4861C25.4829 27.5016 25.4637 27.5034 25.4559 27.5038C25.4489 27.5043 25.4211 27.5054 25.3758 27.4877C25.3291 27.4696 25.2348 27.4183 25.1666 27.3L25.805 26.9317L26.4434 26.5634C26.1699 26.0894 25.6524 26.0159 25.3707 26.0322C25.0842 26.0488 24.6172 26.1783 24.3797 26.6194L25.0286 26.9688ZM25.805 26.9317L25.1663 27.2995C25.1558 27.2813 25.1584 27.2788 25.1633 27.3008C25.1679 27.3216 25.1722 27.3534 25.1727 27.3946C25.1738 27.4827 25.1577 27.5653 25.1404 27.6126L25.8323 27.8663L26.5243 28.12C26.6097 27.8871 26.6499 27.6239 26.6466 27.3755C26.6435 27.1357 26.5989 26.8335 26.4437 26.5639L25.805 26.9317ZM25.8323 27.8663L25.1392 27.6157C24.3194 29.883 22.7922 31.7224 20.7733 33.0537L21.179 33.669L21.5847 34.2843C23.8454 32.7937 25.5884 30.7083 26.5255 28.1169L25.8323 27.8663ZM21.179 33.669L20.7676 33.0575C20.0162 33.563 19.5478 34.5867 20.0958 35.5698L20.7396 35.211L21.3834 34.8522C21.3263 34.7498 21.324 34.6612 21.3504 34.5773C21.3802 34.4827 21.4565 34.3707 21.5904 34.2805L21.179 33.669ZM20.7396 35.211L21.2607 35.7322L21.2705 35.7224L20.7493 35.2012L20.2282 34.6801L20.2184 34.6898L20.7396 35.211ZM20.7493 35.2012L20.1056 35.5602L20.5539 36.3639L21.1976 36.005L21.8413 35.646L21.393 34.8422L20.7493 35.2012ZM21.1976 36.005L20.555 36.3659C20.905 36.9891 21.089 37.5246 21.0339 38.124L21.7679 38.1915L22.5018 38.2589C22.5961 37.2325 22.2563 36.385 21.8402 35.644L21.1976 36.005ZM21.7679 38.1915L21.0339 38.124C21.0261 38.2097 21.0159 38.289 21.0048 38.371C20.9944 38.448 20.9811 38.5413 20.9715 38.6294C20.9512 38.8166 20.9404 39.0382 20.9916 39.2935C21.0911 39.7885 21.3966 40.2672 21.9179 40.9023L22.4876 40.4346L23.0573 39.967C22.5507 39.3499 22.459 39.1136 22.4369 39.0032C22.4274 38.9559 22.4246 38.9022 22.437 38.7883C22.4438 38.7258 22.4529 38.6621 22.4656 38.5688C22.4775 38.4806 22.491 38.3765 22.5018 38.259L21.7679 38.1915ZM22.4876 40.4346L21.918 40.9023C22.9944 42.2135 24.2661 43.3362 25.5915 44.3469L26.0384 43.7608L26.4853 43.1747C25.2132 42.2046 24.0365 41.1598 23.0573 39.967L22.4876 40.4346ZM26.0384 43.7608L25.5923 44.3475C26.6348 45.1402 27.9639 45.5293 29.3264 45.0556L29.0843 44.3594L28.8422 43.6633C28.0556 43.9368 27.236 43.7455 26.4845 43.1741L26.0384 43.7608ZM29.0843 44.3594L29.3296 45.0545C29.6577 44.9386 29.9659 44.6836 30.1402 44.3565C30.3355 43.9901 30.3856 43.4554 29.9915 43.0104L29.4398 43.4991L28.888 43.9878C28.8561 43.9518 28.8203 43.8842 28.8153 43.7985C28.8109 43.7229 28.8328 43.6756 28.8394 43.6632C28.8458 43.6512 28.8466 43.6541 28.8366 43.6627C28.8262 43.6715 28.8237 43.6698 28.839 43.6644L29.0843 44.3594ZM29.4398 43.4991L29.9944 43.0137C29.7745 42.7625 29.4646 42.6167 29.2437 42.5332C29.0004 42.4412 28.7411 42.3795 28.5227 42.3492L28.4212 43.0792L28.3197 43.8092C28.4377 43.8256 28.5895 43.8618 28.7224 43.912C28.7877 43.9367 28.8373 43.9606 28.8708 43.9804C28.9077 44.0021 28.9046 44.0067 28.8852 43.9845L29.4398 43.4991ZM28.4212 43.0792L28.5323 42.3506C26.7461 42.0781 25.6069 40.5167 25.8176 38.6675L25.0853 38.5841L24.353 38.5006C24.059 41.0807 25.6857 43.4074 28.3101 43.8078L28.4212 43.0792ZM25.0853 38.5841L25.8111 38.7122L26.3804 35.4886L25.6546 35.3604L24.9288 35.2322L24.3595 38.4559L25.0853 38.5841ZM25.6546 35.3604L26.3776 35.5035C26.5453 34.6562 26.7754 33.9115 27.0915 33.0805L26.4027 32.8184L25.7138 32.5564C25.3758 33.4448 25.119 34.2705 24.9316 35.2173L25.6546 35.3604ZM26.4027 32.8184L26.5625 33.5379C26.6437 33.5199 26.7146 33.5052 26.7722 33.496C26.8006 33.4915 26.8187 33.4895 26.8283 33.4887C26.8413 33.4877 26.8262 33.4899 26.7939 33.487L26.8607 32.753L26.9274 32.019C26.7779 32.0054 26.6275 32.0264 26.5402 32.0404C26.4365 32.0569 26.3298 32.0796 26.2428 32.0989L26.4027 32.8184ZM26.8607 32.753L26.7919 33.4868C26.6525 33.4738 26.5521 33.4212 26.4978 33.3858C26.4424 33.3498 26.4077 33.3142 26.3914 33.2961C26.3736 33.2764 26.3634 33.2614 26.3593 33.2551C26.3547 33.2481 26.3528 33.2443 26.3527 33.2441C26.3525 33.2436 26.3527 33.244 26.3529 33.2445C26.3531 33.2452 26.3524 33.2435 26.3511 33.2388C26.35 33.2348 26.3466 33.2225 26.3437 33.2025C26.3413 33.1855 26.3361 33.1431 26.341 33.0844L27.0755 33.1456L27.81 33.2068C27.8231 33.0496 27.7907 32.9124 27.7696 32.8378C27.7443 32.7483 27.7089 32.6593 27.6675 32.5777C27.628 32.4997 27.5693 32.4012 27.4864 32.3092C27.4267 32.243 27.2393 32.0482 26.9294 32.0192L26.8607 32.753ZM27.0755 33.1456L26.3428 33.0657L26.128 35.0374L26.8607 35.1173L27.5934 35.1971L27.8082 33.2254L27.0755 33.1456ZM26.8607 35.1173L26.1348 34.9892L25.5743 38.1659L26.3001 38.294L27.0259 38.4221L27.5865 35.2453L26.8607 35.1173ZM26.3001 38.294L25.574 38.1677C25.447 38.8977 25.4498 39.7236 25.6905 40.4804L26.3929 40.2569L27.0952 40.0334C26.9435 39.5567 26.9289 38.9799 27.0262 38.4203L26.3001 38.294ZM26.3929 40.2569L25.6901 40.4789C25.9914 41.4331 26.8182 42.211 27.7536 42.5025L27.973 41.7989L28.1923 41.0952C27.6886 40.9383 27.2429 40.5011 27.0957 40.035L26.3929 40.2569ZM27.973 41.7989L27.7531 42.5024L29.5471 43.0629L29.7669 42.3594L29.9867 41.656L28.1928 41.0954L27.973 41.7989ZM29.7669 42.3594L29.534 43.0587C29.5924 43.0782 29.645 43.0924 29.6855 43.1028C29.7388 43.1165 29.7452 43.1175 29.7766 43.1259C29.8164 43.1365 29.8067 43.1369 29.7869 43.1255C29.7285 43.0919 29.7688 43.0754 29.8769 43.3023L30.5423 42.9854L31.2077 42.6685C31.0356 42.307 30.8282 42.0241 30.5223 41.848C30.3787 41.7653 30.2452 41.7253 30.1571 41.7018C30.0456 41.672 30.043 41.6746 29.9998 41.6602L29.7669 42.3594ZM30.5423 42.9854L29.8769 43.3023C30.0359 43.6364 30.0141 43.9911 29.7749 44.3592L30.3929 44.7608L31.0109 45.1625C31.5004 44.4093 31.6093 43.5118 31.2077 42.6686L30.5423 42.9854ZM30.3929 44.7608L29.7746 44.3596C29.5644 44.6836 29.1166 44.9161 28.405 44.916C27.7046 44.916 26.8756 44.6809 26.1414 44.2338L25.7581 44.8633L25.3748 45.4929C26.3133 46.0643 27.4045 46.39 28.4048 46.3901C29.3938 46.3902 30.4271 46.0622 31.0112 45.162L30.3929 44.7608ZM25.7581 44.8633L26.1414 44.2338C24.5564 43.2687 23.1617 41.9591 21.9914 40.4736L21.4124 40.9298L20.8335 41.3859C22.0927 42.9841 23.6145 44.4209 25.3748 45.4929L25.7581 44.8633ZM21.4124 40.9298L21.9925 40.4751C21.5638 39.9281 21.3729 39.2915 21.4101 38.6147L20.6741 38.5743L19.9382 38.5339C19.882 39.5578 20.1771 40.5484 20.8323 41.3844L21.4124 40.9298ZM20.6741 38.5743L21.4097 38.621C21.4865 37.4114 21.1025 36.1791 20.1527 35.3114L19.6556 35.8555L19.1585 36.3997C19.7222 36.9147 19.9923 37.6817 19.9386 38.5276L20.6741 38.5743ZM19.6556 35.8555L19.8494 35.1444C19.0284 34.9207 18.2197 35.2852 17.7401 35.5875L18.1331 36.211L18.5261 36.8345C18.9061 36.595 19.2551 36.5103 19.4618 36.5666L19.6556 35.8555ZM18.1331 36.211L17.7396 35.5878L15.3285 37.1103L15.722 37.7335L16.1155 38.3567L18.5266 36.8342L18.1331 36.211ZM15.722 37.7335L15.3289 37.11C14.7156 37.4966 13.8181 38.0273 13.127 38.6532C12.4532 39.2634 11.7583 40.1582 11.9591 41.2918L12.6849 41.1632L13.4106 41.0346C13.3498 40.6916 13.5287 40.2781 14.1165 39.7458C14.6869 39.2292 15.4388 38.7833 16.115 38.3569L15.722 37.7335ZM12.6849 41.1632L11.9597 41.295C12.1494 42.338 12.7626 43.0481 13.2723 43.6488L13.8343 43.1719L14.3963 42.6951C13.8595 42.0624 13.5194 41.6328 13.41 41.0313L12.6849 41.1632ZM13.8343 43.1719L13.2742 43.651C13.5027 43.9182 13.6176 44.2014 13.6217 44.4273C13.6251 44.6103 13.5609 44.8381 13.2266 45.0782L13.6566 45.6768L14.0865 46.2755C14.7801 45.7773 15.1085 45.1078 15.0956 44.4004C15.0834 43.736 14.7732 43.1358 14.3944 42.6929L13.8343 43.1719ZM13.6566 45.6768L13.2267 45.0781C12.9213 45.2974 12.4517 45.3809 11.9274 45.2989C11.3967 45.2159 10.9682 44.9875 10.7749 44.7808L10.2366 45.2842L9.69834 45.7877C10.1779 46.3004 10.9454 46.6373 11.6996 46.7553C12.46 46.8742 13.3639 46.7943 14.0864 46.2755L13.6566 45.6768ZM10.2366 45.2842L10.775 44.7809C10.371 44.3488 10.2818 44.2947 10.1668 44.0896C10.0522 43.8852 9.92839 43.5328 9.71157 42.5948L8.99347 42.7608L8.27537 42.9268C8.4884 43.8484 8.64974 44.3979 8.88107 44.8105C9.11197 45.2223 9.42951 45.5002 9.69829 45.7876L10.2366 45.2842ZM8.99347 42.7608L9.71157 42.5948C9.4908 41.6398 9.19575 40.4863 9.05944 39.3782C8.9184 38.2316 8.98059 37.3507 9.28741 36.8457L8.65753 36.463L8.02765 36.0802C7.43746 37.0516 7.45267 38.3898 7.5964 39.5582C7.74484 40.7649 8.06627 42.0223 8.27537 42.9268L8.99347 42.7608ZM8.65753 36.463L9.28478 36.85C10.0979 35.5322 11.0007 33.9427 11.4325 32.617L10.7318 32.3887L10.031 32.1604C9.65918 33.3017 8.84308 34.7586 8.03029 36.0759L8.65753 36.463ZM10.7318 32.3887L11.4325 32.617C11.8732 31.2643 11.9271 29.8936 11.9082 28.5657L11.1712 28.5762L10.4342 28.5868C10.4526 29.8752 10.3939 31.0463 10.031 32.1605L10.7318 32.3887ZM11.1712 28.5762H11.9082V25.5489H11.1712H10.4342V28.5762H11.1712ZM11.1712 25.5489L11.9082 25.5401C11.9014 24.972 12.1464 24.3969 12.5395 23.8647L11.9466 23.4268L11.3537 22.989C10.8497 23.6715 10.4223 24.5559 10.4342 25.5577L11.1712 25.5489ZM11.9466 23.4268L12.5377 23.8671C12.4688 23.9596 12.3833 23.9831 12.3712 23.9856C12.3677 23.9863 12.3765 23.9842 12.4021 23.984C12.4272 23.9839 12.4608 23.9857 12.5045 23.9905C12.601 24.001 12.691 24.0187 12.8232 24.0413C12.9109 24.0564 13.1122 24.0932 13.2995 24.074C13.3962 24.064 13.6052 24.0298 13.792 23.8643C14.0162 23.6657 14.0757 23.4021 14.0642 23.1996C14.0544 23.0272 13.9954 22.8843 13.953 22.7961C13.9059 22.6981 13.8461 22.601 13.7826 22.5077C13.5382 22.1489 13.0616 21.5946 12.2821 20.7502L11.7405 21.2501L11.199 21.75C11.9892 22.606 12.3909 23.083 12.5643 23.3375C12.6052 23.3975 12.621 23.4276 12.6244 23.4345C12.6324 23.4513 12.5986 23.3912 12.5925 23.2832C12.5847 23.1452 12.6263 22.9277 12.8145 22.761C12.9654 22.6273 13.1205 22.6105 13.1489 22.6076C13.1997 22.6024 13.2069 22.6115 13.0718 22.5884C12.9813 22.5729 12.8198 22.5421 12.6648 22.5251C12.5095 22.5081 12.295 22.4961 12.0733 22.5419C11.8389 22.5903 11.56 22.7121 11.3555 22.9865L11.9466 23.4268ZM11.7405 21.2501L12.2821 20.7502C10.8894 19.2413 10.4877 17.3517 10.3504 15.1227C10.2808 13.993 10.2814 12.8611 10.238 11.6275C10.1955 10.4191 10.1109 9.16481 9.8662 7.9142L9.14288 8.05573L8.41957 8.19727C8.64202 9.33412 8.72329 10.4977 8.76487 11.6794C8.80557 12.836 8.80851 14.0664 8.87912 15.2133C9.02223 17.5374 9.45217 19.8575 11.199 21.75L11.7405 21.2501ZM9.14288 8.05573L9.8663 7.91473C9.62329 6.66794 8.97844 5.49632 8.08997 4.7151C7.19358 3.92692 5.98474 3.49395 4.71715 3.92891L4.95636 4.62605L5.19557 5.32318C5.83427 5.10402 6.50376 5.28324 7.1166 5.8221C7.73737 6.36793 8.23263 7.23821 8.41946 8.19674L9.14288 8.05573ZM4.95636 4.62605L4.7286 3.92509C4.4157 4.02676 4.12592 4.22885 3.92233 4.49681C3.71584 4.76862 3.56534 5.15798 3.65525 5.59639L4.37726 5.44831L5.09927 5.30024C5.10591 5.33265 5.10271 5.36149 5.09762 5.37976C5.09318 5.39572 5.08917 5.39765 5.09608 5.38855C5.10295 5.37951 5.11581 5.36608 5.1347 5.35275C5.15359 5.33941 5.17153 5.3311 5.18412 5.32701L4.95636 4.62605ZM4.37726 5.44831L4.09248 6.12811C4.6793 6.37394 4.91056 6.6298 4.98169 6.98543L5.70441 6.84089L6.42713 6.69635C6.21792 5.65029 5.45821 5.10205 4.66204 4.76852L4.37726 5.44831ZM5.70441 6.84089L4.98168 6.9854C5.0446 7.3001 5.05418 7.52048 5.01563 7.69132C4.98311 7.83541 4.90636 7.99154 4.68322 8.16411L5.1341 8.74714L5.58497 9.33017C6.06259 8.96082 6.34105 8.5142 6.45353 8.01584C6.55997 7.54422 6.50433 7.08243 6.42714 6.69638L5.70441 6.84089ZM5.1341 8.74714L4.68332 8.16403C4.25306 8.49664 3.56708 8.56249 2.80883 8.27333L2.5462 8.96198L2.28358 9.65064C3.33778 10.0527 4.61363 10.0811 5.58487 9.33025L5.1341 8.74714ZM2.5462 8.96198L2.80818 8.27308C2.38585 8.11248 1.9158 7.63988 1.69287 6.97851L0.994447 7.21394L0.296023 7.44936C0.633766 8.45133 1.37963 9.30688 2.28423 9.65089L2.5462 8.96198ZM0.994447 7.21394L1.69226 6.9767C1.16633 5.42976 1.61748 3.76872 2.79591 2.54937L2.26593 2.03718L1.73595 1.52499C0.223397 3.09006 -0.429055 5.31666 0.296638 7.45118L0.994447 7.21394ZM2.26593 2.03718L2.79931 2.54584C3.45267 1.86073 4.18855 1.49031 5.09937 1.47529L5.08722 0.738351L5.07507 0.00141674C3.70654 0.0239885 2.61138 0.606994 1.73256 1.52852L2.26593 2.03718ZM20.6683 21.586L21.0367 22.2243C21.1971 22.1318 21.3902 22.1138 21.6761 22.2507L21.9944 21.586L22.3128 20.9213C21.7022 20.6289 20.9799 20.5551 20.2998 20.9477L20.6683 21.586ZM21.9944 21.586L21.6784 22.2518C21.9076 22.3606 22.0917 22.5913 22.1868 22.9088C22.2851 23.2365 22.2543 23.5466 22.1758 23.7166L22.845 24.0255L23.5142 24.3343C23.7722 23.7755 23.7787 23.0854 23.5988 22.4855C23.4158 21.8752 23.0065 21.2506 22.3105 20.9202L21.9944 21.586ZM22.845 24.0255L22.1758 23.7166C21.8894 24.3372 21.4307 24.9184 20.8662 25.3619L21.3216 25.9415L21.777 26.521C22.5207 25.9367 23.1279 25.1714 23.5142 24.3343L22.845 24.0255ZM21.3216 25.9415L20.8662 25.362L18.7734 27.0065L19.2288 27.586L19.6842 28.1655L21.777 26.521L21.3216 25.9415ZM19.2288 27.586L18.7732 27.0067C17.6765 27.8692 17.028 28.9936 16.4682 30.1038L17.1263 30.4356L17.7844 30.7675C18.3271 29.6912 18.8564 28.8166 19.6844 28.1653L19.2288 27.586ZM17.1263 30.4356L16.468 30.104L15.2161 32.5894L15.8743 32.921L16.5326 33.2525L17.7845 30.7672L17.1263 30.4356ZM15.8743 32.921L15.2034 32.616C15.1856 32.6551 15.1709 32.6949 15.1678 32.703C15.1613 32.7201 15.162 32.7178 15.1645 32.7122C15.1679 32.7046 15.2031 32.623 15.2946 32.5444C15.4048 32.4497 15.5371 32.4086 15.6495 32.4078C15.7395 32.4071 15.7797 32.4323 15.7453 32.417L15.4446 33.0899L15.144 33.7628C15.4202 33.8862 15.8738 33.9902 16.2553 33.6624C16.4041 33.5345 16.4773 33.3875 16.5102 33.3138C16.5275 33.2751 16.5408 33.2397 16.5462 33.2254C16.555 33.2023 16.5514 33.2125 16.5453 33.226L15.8743 32.921ZM15.4446 33.0899L15.7456 32.4171C15.8882 32.4809 15.9239 32.5811 15.9137 32.5577C15.9057 32.5394 15.886 32.4784 15.8741 32.3616C15.8504 32.131 15.8699 31.8224 15.925 31.5391L15.2015 31.3985L14.478 31.2579C14.4023 31.6474 14.3659 32.1051 14.4077 32.5122C14.4285 32.7143 14.472 32.9401 14.5633 33.1487C14.6524 33.3523 14.8235 33.6195 15.1437 33.7627L15.4446 33.0899ZM15.2015 31.3985L14.6803 31.9197L14.6891 31.9285L15.2103 31.4073L15.7314 30.8861L15.7226 30.8773L15.2015 31.3985ZM15.2103 31.4073L15.9331 31.5511C16.2649 29.8832 16.8333 28.3167 17.7569 26.94L17.1448 26.5294L16.5328 26.1187C15.4754 27.6948 14.8471 29.4553 14.4874 31.2635L15.2103 31.4073ZM17.1448 26.5294L17.7552 26.9424C18.2279 26.244 18.843 25.7299 19.4748 25.1134C20.044 24.5581 20.7203 23.8349 20.7687 22.8467L20.0325 22.8106L19.2964 22.7746C19.2793 23.1225 19.0398 23.4785 18.4454 24.0584C17.9137 24.5772 17.1177 25.2543 16.5344 26.1163L17.1448 26.5294ZM20.0325 22.8106L20.7685 22.85C20.7894 22.4599 20.9163 22.2939 21.037 22.2242L20.6683 21.586L20.2996 20.9478C19.5792 21.364 19.3317 22.1147 19.2966 22.7712L20.0325 22.8106Z" fill="#A049BB" mask="url(#path-1-outside-1_435_132)"/>
</svg>