<svg preserveAspectRatio="none" width="100%" height="100%" overflow="visible" style="display: block;" viewBox="0 0 360.612 239.336" fill="none" xmlns="http://www.w3.org/2000/svg">
<path id="Exclude" d="M156.343 0.00291449C179.666 0.488023 189.816 12.1918 204.658 27.1318L226.487 49.083L298.363 49.1152C302.854 49.1135 307.38 49.0187 311.871 49.1074C326.432 49.3948 339.603 47.0745 351.032 58.043C357.066 63.8153 360.521 71.7773 360.606 80.1279C360.775 88.5883 357.538 96.7614 351.617 102.81C347.764 106.758 342.921 109.604 337.599 111.053C330.755 112.883 316.93 112.402 309.385 112.397C297.296 112.346 285.211 112.36 273.122 112.438C276.437 123.216 274.429 135.447 266.779 143.871C262.091 149.033 257.789 151.253 251.376 153.644C258.16 172.973 248.776 189.008 230.242 195.912C231.668 200.013 232.339 202.897 232.36 207.295C232.47 215.762 229.131 223.91 223.111 229.864C212.286 240.661 200.085 239.228 185.868 239.229C149.622 239.27 118.695 239.287 83.4054 229.085C76.1093 226.976 67.1525 224.533 60.2492 221.528C52.3173 236.491 39.1968 239.958 23.3419 239.25C14.5587 238.858 0.56455 241.853 0.200344 228.52C-0.134615 216.268 0.0500965 204.101 0.0567897 191.924L0.0489772 123.594L0.0440943 79.8691C0.0440943 72.694 -0.16014 65.1617 0.318508 58.1465C1.40619 50.0903 8.1141 48.916 14.8537 48.9629C32.8276 49.0879 46.2238 46.8713 58.1017 63.0537L102.871 27.1767C118.05 15.0034 129.707 2.55641 149.951 0.268539C150.823 0.0867889 155.265 -0.019276 156.343 0.00291449ZM42.049 80.7568C41.5201 68.5118 30.3874 70.0099 21.2228 70.1631C21.1615 119.164 20.7208 169.156 21.2414 218.087C27.7312 218.146 34.2457 219.131 39.2365 214.922C40.6009 213.283 41.8206 211.707 41.9855 209.508C42.5107 202.508 42.3336 195.12 42.3361 188.091L42.3449 149.573L42.34 105.229C42.3372 96.9948 42.4044 88.9863 42.049 80.7568ZM196.716 49.0058C182.08 36.4562 174.361 19.5735 152.471 21.3262C152.238 21.3445 152.005 21.3672 151.773 21.3926C139.625 23.0963 133.084 30.2007 123.814 37.4931C120.684 39.9549 117.602 42.4933 114.494 44.9814L63.4845 85.7578L63.4787 159.696C63.4797 173.103 63.291 187.004 63.5334 200.379C87.0276 208.79 115.152 216.381 140.069 217.364C147.845 217.671 200.252 219.389 205.533 216.871C207.959 215.689 209.806 213.578 210.653 211.017C212.669 205.104 209.672 198.697 203.633 197.684C196.167 196.431 187.96 192.89 190.823 183.36C195.855 166.619 225.839 184.773 231.833 168.777C232.835 166.217 232.439 162.691 231.194 160.311C227.408 152.618 216.992 154.973 209.941 154.71C203.492 154.632 195.23 155.976 191.558 149.152C189.032 144.459 190.52 137.409 195.686 135.006C200.328 132.846 205.484 133.625 210.454 133.496C212.192 133.451 214.048 133.521 215.808 133.536C219.861 133.541 242.745 133.771 245.066 133.253C247.058 132.826 248.89 131.842 250.346 130.416C252.446 128.359 253.611 125.53 253.566 122.591C253.464 111.873 242.266 112.285 234.633 112.356C223.97 112.457 213.275 112.462 202.613 112.385C196.544 112.274 190.568 109.295 190.496 102.449C190.408 93.9504 196.621 91.0079 204.204 91.4062C234.089 91.3576 263.951 91.3806 293.823 91.3887L317.064 91.3974C324.823 91.407 339.293 93.1816 339.561 81.1123C339.691 75.1237 335.334 70.4908 329.469 70.3115C323.964 69.935 318.426 70.0795 312.882 70.0918L284.313 70.1055L187.747 70.042C177.883 70.0191 165.021 70.8796 155.347 69.3418C148.039 68.18 145.747 57.4867 150.738 52.5752C153.166 49.668 156.926 49.2509 160.464 49.1015C172.509 48.8726 184.678 49.3049 196.716 49.0058Z" fill="var(--fill-0, white)"/>
</svg>
