<svg preserveAspectRatio="none" width="100%" height="100%" overflow="visible" style="display: block;" viewBox="0 0 80 80" fill="none" xmlns="http://www.w3.org/2000/svg">
<g id="Group 378">
<path id="Vector" d="M39.96 0C17.88 0 0 17.92 0 40C0 62.08 17.88 80 39.96 80C62.08 80 80 62.08 80 40C80 17.92 62.08 0 39.96 0ZM40 72C22.32 72 8 57.68 8 40C8 22.32 22.32 8 40 8C57.68 8 72 22.32 72 40C72 57.68 57.68 72 40 72Z" fill="var(--fill-0, white)"/>
<path id="Vector_2" d="M42 20H36V44L57 56.6L60 51.68L42 41V20Z" fill="var(--fill-0, white)"/>
</g>
</svg>
