<svg preserveAspectRatio="none" width="100%" height="100%" overflow="visible" style="display: block;" viewBox="0 0 475.958 340.337" fill="none" xmlns="http://www.w3.org/2000/svg">
<g id="Group 1000005846">
<path id="Vector" d="M335.054 321.288C334.448 320.755 333.745 320.367 332.921 320.149C332.097 319.907 330.885 319.785 329.334 319.785H324.099C323.203 319.785 322.548 319.979 322.136 320.367C321.724 320.755 321.506 321.385 321.506 322.282V337.841C321.506 338.64 321.7 339.271 322.063 339.683C322.451 340.095 322.936 340.313 323.542 340.313C324.148 340.313 324.608 340.095 324.996 339.683C325.384 339.271 325.578 338.64 325.578 337.816V332.097H329.31C331.806 332.097 333.697 331.564 334.957 330.498C336.217 329.431 336.847 327.88 336.847 325.82C336.847 324.851 336.702 323.978 336.387 323.227C336.072 322.452 335.611 321.797 335.03 321.264L335.054 321.288ZM332.242 327.735C331.903 328.195 331.418 328.534 330.764 328.728C330.11 328.922 329.31 329.019 328.341 329.019H325.578V322.863H328.341C330.158 322.863 331.37 323.154 331.952 323.76C332.485 324.318 332.727 325.045 332.727 325.941C332.727 326.693 332.558 327.274 332.218 327.735H332.242Z" fill="var(--fill-0, white)"/>
<path id="Vector_2" d="M357.326 334.957C356.817 334.108 356.211 333.309 355.557 332.557C354.902 331.806 354.2 331.249 353.473 330.861C355.193 330.473 356.478 329.843 357.326 328.946C358.174 328.05 358.586 326.838 358.586 325.335C358.586 324.608 358.465 323.906 358.198 323.251C357.956 322.597 357.568 322.015 357.084 321.53C356.599 321.046 356.041 320.658 355.411 320.391C354.878 320.149 354.296 320.004 353.642 319.907C352.988 319.834 352.212 319.785 351.291 319.785H344.651C343.778 319.785 343.124 319.979 342.736 320.367C342.348 320.755 342.155 321.409 342.155 322.282V337.793C342.155 338.617 342.324 339.222 342.688 339.658C343.051 340.094 343.56 340.288 344.19 340.288C344.796 340.288 345.281 340.095 345.669 339.683C346.032 339.271 346.226 338.641 346.226 337.793V331.321H347.656C348.383 331.321 348.989 331.419 349.449 331.613C349.934 331.806 350.395 332.17 350.855 332.679C351.315 333.212 351.849 333.963 352.43 334.957L354.079 337.671C354.466 338.326 354.757 338.81 354.999 339.125C355.218 339.464 355.484 339.731 355.799 339.949C356.114 340.167 356.502 340.264 356.962 340.264C357.35 340.264 357.69 340.192 357.98 340.046C358.271 339.901 358.514 339.683 358.683 339.416C358.853 339.15 358.95 338.883 358.95 338.616C358.95 338.35 358.804 337.889 358.513 337.21C358.223 336.532 357.811 335.756 357.302 334.908L357.326 334.957ZM352.406 328.146C351.728 328.316 350.903 328.413 349.934 328.413H346.275V322.863H350.055C351.461 322.863 352.406 322.961 352.867 323.154C353.376 323.373 353.763 323.687 354.054 324.099C354.345 324.536 354.49 325.021 354.49 325.578C354.49 326.305 354.321 326.862 353.957 327.274C353.594 327.686 353.085 327.977 352.43 328.146H352.406Z" fill="var(--fill-0, white)"/>
<path id="Vector_3" d="M377.999 336.726H368.474V330.982H376.957C377.587 330.982 378.048 330.837 378.363 330.546C378.653 330.255 378.823 329.892 378.823 329.431C378.823 328.971 378.678 328.607 378.363 328.316C378.048 328.026 377.587 327.905 376.957 327.905H368.474V322.96H377.684C378.338 322.96 378.823 322.815 379.138 322.524C379.453 322.234 379.623 321.846 379.623 321.385C379.623 320.925 379.453 320.537 379.138 320.246C378.823 319.955 378.338 319.81 377.684 319.81H366.899C366.317 319.81 365.857 319.907 365.469 320.077C365.106 320.246 364.815 320.512 364.645 320.9C364.476 321.264 364.379 321.749 364.379 322.33V337.502C364.379 338.374 364.573 339.029 364.96 339.416C365.348 339.804 365.978 339.998 366.875 339.998H377.975C378.605 339.998 379.09 339.853 379.429 339.562C379.744 339.271 379.914 338.883 379.914 338.399C379.914 337.914 379.744 337.501 379.429 337.211C379.114 336.92 378.629 336.774 377.975 336.774L377.999 336.726Z" fill="var(--fill-0, white)"/>
<path id="Vector_4" d="M401.846 319.785H400.586C399.834 319.785 399.277 319.858 398.938 320.004C398.599 320.149 398.332 320.392 398.162 320.755C397.993 321.119 397.799 321.7 397.605 322.5L394.672 333.551L391.74 322.5C391.522 321.7 391.352 321.119 391.182 320.755C391.013 320.392 390.77 320.149 390.407 320.004C390.068 319.858 389.51 319.785 388.759 319.785H387.499C386.723 319.785 386.093 319.931 385.633 320.246C385.172 320.561 384.954 321.143 384.954 322.04V338.01C384.954 338.786 385.124 339.368 385.487 339.755C385.826 340.143 386.287 340.337 386.844 340.337C387.402 340.337 387.862 340.143 388.226 339.755C388.565 339.368 388.735 338.786 388.735 338.01V324.075L391.958 336.92C392.079 337.332 392.176 337.744 392.273 338.132C392.37 338.519 392.515 338.883 392.709 339.198C392.903 339.513 393.146 339.78 393.485 339.998C393.824 340.192 394.212 340.313 394.697 340.313C395.327 340.313 395.836 340.143 396.175 339.828C396.539 339.513 396.781 339.15 396.902 338.762C397.023 338.374 397.217 337.768 397.411 336.92L400.634 324.075V338.01C400.634 338.786 400.804 339.368 401.167 339.755C401.507 340.143 401.967 340.337 402.5 340.337C403.082 340.337 403.542 340.143 403.882 339.755C404.221 339.368 404.391 338.786 404.391 338.01V322.04C404.391 321.167 404.173 320.561 403.712 320.246C403.252 319.931 402.622 319.785 401.846 319.785Z" fill="var(--fill-0, white)"/>
<path id="Vector_5" d="M412.679 319.446C412.074 319.446 411.589 319.664 411.225 320.076C410.838 320.488 410.668 321.119 410.668 321.943V337.841C410.668 338.665 410.862 339.295 411.25 339.707C411.637 340.119 412.122 340.337 412.704 340.337C413.285 340.337 413.818 340.143 414.206 339.707C414.594 339.295 414.788 338.665 414.788 337.841V321.943C414.788 321.119 414.594 320.488 414.206 320.076C413.818 319.664 413.334 319.471 412.704 319.471L412.679 319.446Z" fill="var(--fill-0, white)"/>
<path id="Vector_6" d="M436.163 319.446C435.558 319.446 435.049 319.64 434.685 320.052C434.322 320.464 434.128 321.07 434.128 321.918V331.927C434.128 333.648 433.788 334.933 433.134 335.781C432.48 336.629 431.341 337.041 429.741 337.041C428.578 337.041 427.681 336.823 427.051 336.411C426.421 335.999 425.96 335.418 425.718 334.642C425.475 333.891 425.33 332.945 425.33 331.806V321.894C425.33 321.07 425.136 320.44 424.773 320.028C424.409 319.616 423.9 319.398 423.27 319.398C422.64 319.398 422.18 319.616 421.816 320.028C421.452 320.44 421.259 321.07 421.259 321.894V331.588C421.259 333.115 421.428 334.424 421.743 335.514C422.082 336.605 422.591 337.502 423.294 338.205C423.997 338.907 424.918 339.416 426.033 339.755C427.148 340.095 428.481 340.264 430.032 340.264C431.341 340.264 432.48 340.119 433.449 339.804C434.418 339.489 435.267 339.004 436.018 338.326C436.866 337.526 437.448 336.605 437.763 335.538C438.078 334.472 438.223 333.164 438.223 331.588V321.894C438.223 321.07 438.029 320.44 437.642 320.028C437.254 319.616 436.769 319.422 436.139 319.422L436.163 319.446Z" fill="var(--fill-0, white)"/>
<path id="Vector_7" d="M461.296 319.785H460.036C459.284 319.785 458.727 319.858 458.387 320.004C458.048 320.149 457.782 320.392 457.612 320.755C457.442 321.119 457.249 321.7 457.055 322.5L454.122 333.551L451.19 322.5C450.972 321.7 450.802 321.119 450.632 320.755C450.463 320.392 450.22 320.149 449.857 320.004C449.518 319.858 448.96 319.785 448.209 319.785H446.948C446.173 319.785 445.543 319.931 445.082 320.246C444.622 320.561 444.404 321.143 444.404 322.04V338.01C444.404 338.786 444.574 339.368 444.937 339.755C445.276 340.143 445.737 340.337 446.294 340.337C446.851 340.337 447.312 340.143 447.651 339.755C447.991 339.368 448.16 338.786 448.16 338.01V324.075L451.384 336.92C451.505 337.332 451.602 337.744 451.699 338.132C451.796 338.519 451.941 338.883 452.135 339.198C452.329 339.513 452.571 339.78 452.911 339.998C453.25 340.192 453.638 340.313 454.122 340.313C454.752 340.313 455.261 340.143 455.601 339.828C455.964 339.513 456.206 339.15 456.328 338.762C456.449 338.374 456.643 337.768 456.837 336.92L460.06 324.075V338.01C460.06 338.786 460.229 339.368 460.593 339.755C460.932 340.143 461.393 340.337 461.926 340.337C462.508 340.337 462.968 340.143 463.307 339.755C463.647 339.368 463.816 338.786 463.816 338.01V322.04C463.816 321.167 463.598 320.561 463.138 320.246C462.677 319.931 462.071 319.785 461.272 319.785H461.296Z" fill="var(--fill-0, white)"/>
<path id="Vector_8" d="M6.51917 112.791H31.8693C36.0862 112.791 38.3887 110.61 38.3887 106.611V60.5884L60.0792 108.066C61.6061 111.168 63.9086 112.791 67.5682 112.791H94.0573C98.2742 112.791 100.577 110.61 100.577 106.611V6.20443C100.577 2.20559 98.2742 0.0242911 94.0573 0.0242911H68.7072C64.4902 0.0242911 62.1877 2.20559 62.1877 6.20443V52.2273L40.4972 4.75007C38.9704 1.64794 36.6681 0.0242911 33.0085 0.0242911H6.51917C2.30222 0.0242911 0 2.20559 0 6.20443V106.611C0 110.61 2.30222 112.791 6.51917 112.791Z" fill="var(--fill-0, white)"/>
<path id="Vector_9" d="M154.549 115.7C186.224 115.7 205.055 98.5892 205.055 71.8576V6.18014C205.055 2.1813 202.753 1.3262e-06 198.536 1.3262e-06H171.271C167.054 1.3262e-06 164.752 2.1813 164.752 6.18014V69.1193C164.752 74.7661 163.031 79.298 156.681 79.298C150.332 79.298 148.611 74.7419 148.611 69.1193V6.18014C148.611 2.1813 146.309 1.3262e-06 142.092 1.3262e-06H114.827C110.61 1.3262e-06 108.308 2.1813 108.308 6.18014V71.8576C108.308 98.5892 122.897 115.7 154.573 115.7H154.549Z" fill="var(--fill-0, white)"/>
<path id="Vector_10" d="M218.287 36.4016H230.962V106.611C230.962 110.61 233.265 112.791 237.482 112.791H264.747C268.964 112.791 271.266 110.61 271.266 106.611V36.4016H283.941C288.158 36.4016 290.46 34.2203 290.46 30.2214V6.20443C290.46 2.20559 288.158 0.0242911 283.941 0.0242911H218.287C214.07 0.0242911 211.768 2.20559 211.768 6.20443V30.2214C211.768 34.2203 214.07 36.4016 218.287 36.4016Z" fill="var(--fill-0, white)"/>
<path id="Vector_11" d="M303.742 112.791H331.007C335.224 112.791 337.526 110.61 337.526 106.611V72.5848H343.851L351.922 106.611C352.891 110.61 354.224 112.791 358.441 112.791H385.706C389.923 112.791 393.001 110.416 392.225 106.611L385.9 78.5951C384.179 71.4942 380.907 66.7684 375.915 64.7811C385.318 60.0552 392.031 50.24 392.031 34.5839C392.031 11.6573 376.278 0.0242911 351.122 0.0242911H303.693C299.476 0.0242911 297.174 2.20559 297.174 6.20443V106.611C297.174 110.61 299.476 112.791 303.693 112.791H303.742ZM337.526 29.8582H340.992C347.705 29.8582 351.752 32.96 351.752 41.6847C351.752 51.1365 347.729 53.3178 340.992 53.3178H337.526V29.8582Z" fill="var(--fill-0, white)"/>
<path id="Vector_12" d="M469.439 36.4016C473.656 36.4016 475.958 34.2203 475.958 30.2214V6.20443C475.958 2.20559 473.656 0.0242911 469.439 0.0242911H407.614C403.397 0.0242911 401.095 2.20559 401.095 6.20443V106.611C401.095 110.61 403.397 112.791 407.614 112.791H469.439C473.656 112.791 475.958 110.61 475.958 106.611V82.5943C475.958 78.5955 473.656 76.4142 469.439 76.4142H441.399V68.2223H461.95C466.167 68.2223 468.469 66.0416 468.469 62.0428V50.773C468.469 46.7742 466.167 44.5929 461.95 44.5929H441.399V36.4016H469.439Z" fill="var(--fill-0, white)"/>
<path id="Vector_13" d="M129.078 126.436C117.469 123.261 102.128 122.534 92.1189 122.534C29.7856 122.534 0.0970194 156.246 0.0970194 219.039C0.0970194 281.833 26.853 311.061 89.5741 311.061C100.189 311.061 116.112 310.503 128.52 307.522C136.978 305.462 141.098 300.809 141.098 292.812V267.292C141.098 257.598 135.209 255.004 124.982 256.289C98.4442 259.464 60.0795 268.019 60.0795 215.476C60.0795 162.934 102.564 174.858 124.982 177.475C135.209 178.59 141.098 176.724 141.098 166.861V141.341C141.098 133.513 137.366 128.665 129.102 126.436H129.078Z" fill="var(--fill-0, white)"/>
<path id="Vector_14" d="M459.43 125.515H325.723C316.683 125.515 311.57 130.362 311.57 138.917V166.109C311.57 174.689 316.683 179.511 325.723 179.511H362.295V294.654C362.295 303.233 367.408 308.056 376.448 308.056H408.705C417.745 308.056 422.859 303.209 422.859 294.654V179.511H459.43C468.47 179.511 473.583 174.664 473.583 166.109V138.917C473.583 130.338 468.47 125.515 459.43 125.515Z" fill="var(--fill-0, white)"/>
<path id="Vector_15" d="M267.873 305.753C266.71 303.839 266.056 301.657 263.802 300.446C262.905 299.961 262.954 298.822 262.905 297.877C262.784 294.993 263.075 276.598 264.577 269.279C260.845 277.592 256.337 284.232 253.575 289.128C252.363 291.261 250.278 294.314 248.606 296.205C247.685 297.247 246.328 298.41 247.104 299.791C247.952 301.342 249.818 302.336 251.248 302.166C253.211 301.924 255.15 301.464 257.04 302.288C258.737 303.015 259.73 304.251 259.561 306.117C259.488 306.965 259.221 307.644 258.688 308.08H270.054C269.133 307.523 268.431 306.698 267.849 305.753H267.873Z" fill="var(--fill-0, white)"/>
<path id="Vector_16" d="M281.275 137.245C279.506 129.417 274.198 125.515 265.74 125.515H203.407C194.949 125.515 189.641 129.417 187.872 137.245L151.883 293.369C149.726 302.675 154.646 308.08 164.461 308.08H216.591C193.665 304.978 187.581 290.752 187.581 278.368C187.581 269.158 190.611 260.264 191.459 251.127C192.235 242.911 191.338 232.756 184.213 227.134C182.807 226.043 182.541 224.08 183.607 222.698C184.698 221.293 186.757 221.003 188.211 222.069C190.49 223.741 192.404 225.825 193.931 228.103C198.245 234.623 199.505 242.983 199.093 250.593C198.827 255.634 198.003 260.361 197.3 264.99C196.718 268.891 196.161 272.89 196.161 276.84C196.161 294.993 206.533 300.131 212.495 298.749C212.471 298.701 212.423 298.652 212.398 298.628C212.229 297.295 211.744 296.059 211.187 294.799C207.382 286.316 205.419 277.543 207.624 268.382C210.435 256.652 216.785 247.395 228.854 242.451C231.665 241.287 234.695 240.608 237.627 239.663C241.529 238.403 244.922 236.562 246.91 232.926C247.54 231.763 248.461 230.696 249.672 230.066C252.169 228.733 252.847 226.601 252.993 224.129C253.332 218.385 254.689 212.811 256.725 207.406C257.549 205.201 259.148 203.553 260.893 201.856C264.747 198.1 269.715 195.579 273.375 191.629C273.641 191.363 273.98 191.144 274.271 190.902C274.732 190.563 275.216 190.102 275.847 190.369C276.574 190.66 276.38 191.338 276.307 191.847C276.041 193.81 275.774 195.798 275.338 197.761C274.974 199.409 275.532 200.353 277.155 200.959C279.894 201.977 282.681 202.923 284.523 205.322C284.959 205.879 285.444 206.412 285.468 207.14C285.541 209.636 287.116 211.066 289.225 212.205C290.291 212.787 292.133 213.465 291.357 214.87C290.291 216.858 290.364 219.16 288.716 221.051C286.947 223.062 284.886 223.596 282.439 223.838C279.87 224.08 277.834 227.788 279.312 230.115C282.245 234.671 283.142 239.688 283.82 244.826C284.232 247.879 283.093 250.618 281.808 253.284C280.524 255.901 278.973 258.421 277.446 260.942C270.539 272.163 269.642 285.953 271.945 298.41C272.114 299.38 272.575 300.3 272.987 301.197C273.52 302.312 274.417 302.918 275.798 302.796C276.525 302.724 277.252 302.748 277.955 302.796C280.621 302.99 282.099 305.317 281.057 307.643C280.985 307.837 280.888 308.007 280.766 308.177H304.638C314.478 308.177 319.397 302.772 317.216 293.466L281.227 137.342L281.275 137.245Z" fill="var(--fill-0, white)"/>
</g>
</svg>
