<svg preserveAspectRatio="xMidYMid meet" width="100%" height="100%" overflow="hidden" style="display: block;" viewBox="0 0 196 196.029" fill="none" xmlns="http://www.w3.org/2000/svg">
<path d="M119.497 0.0171434C139.106 -0.458263 157.093 9.00213 170.974 22.398C185.599 36.514 195.301 55.3577 195.964 75.9488C196.46 91.3829 191.852 105.695 181.173 117.066C179.408 118.944 176.773 120.735 174.163 119.399C173.157 118.883 172.078 118.028 171.033 117.464C169.054 116.418 166.841 115.893 164.603 115.939C161.006 116.012 157.597 117.558 155.171 120.214C152.639 122.943 151.396 126.2 151.738 129.933C151.88 131.477 152.88 135.626 151.857 136.839C149.692 139.409 146.792 141.611 144.372 144.017C139.317 148.995 134.89 154.572 131.19 160.626C126.658 168.043 124.888 173.449 118.307 179.931C106.993 191.074 95.472 195.899 79.8427 196.029C60.6173 195.868 42.0982 188.763 27.6991 176.022C23.2176 171.992 26.8799 168.988 26.5438 163.776C26.3884 161.364 25.5583 159.245 24.1835 157.269C18.521 149.133 11.4476 153.38 8.42275 150.607C6.97135 149.276 6.19926 146.984 5.47939 145.195C2.46523 137.704 0.363026 129.62 0.0711906 121.522C-0.0759647 117.434 -0.028639 113.316 0.537011 109.258C2.59481 94.4964 10.5067 80.5333 22.9687 72.1226C26.4364 69.782 30.1834 67.9408 33.8026 65.857C37.65 63.6225 41.3201 61.0954 44.7792 58.2974C50.0328 54.071 54.7779 49.2488 58.9198 43.9283C60.7432 41.6022 62.4192 38.8783 64.3534 36.7134C65.6748 35.2345 68.6336 35.7348 70.1493 33.9664C72.1118 31.6765 70.6103 29.5517 70.4433 27.2886C70.2516 24.6905 75.4143 18.6341 77.2079 16.7574C88.7409 4.69077 103.147 0.482677 119.353 0.0220262L119.497 0.0171434ZM97.8964 154.599C97.1157 147.281 90.5465 141.984 83.2294 142.773C75.924 143.561 70.6375 150.118 71.4169 157.423C72.1964 164.73 78.7473 170.025 86.0546 169.252C93.3732 168.48 98.6771 161.917 97.8964 154.599ZM62.2216 150.209C61.4769 145.361 56.9422 142.035 52.0946 142.781C47.2494 143.527 43.9258 148.059 44.6698 152.905C45.4141 157.75 49.9443 161.076 54.7899 160.333C59.6383 159.591 62.9662 155.057 62.2216 150.209ZM53.246 100.555C52.1678 93.2539 45.3568 88.2216 38.0604 89.3345C30.8133 90.44 25.8216 97.1943 26.8925 104.447C27.9634 111.699 34.6945 116.723 41.952 115.687C49.2587 114.644 54.3242 107.857 53.246 100.555ZM169.236 78.5591C168.336 68.8297 159.748 61.6536 150.014 62.4976C140.2 63.3488 132.953 72.0223 133.86 81.8306C134.767 91.6392 143.482 98.8367 153.285 97.8736C163.009 96.9182 170.136 88.2886 169.236 78.5591ZM124.723 66.2886C124.427 58.9347 118.222 53.2148 110.868 53.5181C103.526 53.8211 97.8161 60.0153 98.1112 67.358C98.4063 74.7006 104.594 80.4165 111.937 80.1294C119.292 79.8418 125.018 73.6427 124.723 66.2886ZM133.574 34.3003C132.848 29.439 128.309 26.093 123.451 26.8375C118.619 27.5783 115.295 32.0875 116.017 36.9224C116.74 41.7571 121.236 45.0975 126.073 44.3941C130.937 43.6866 134.3 39.1614 133.574 34.3003Z" fill="#00577A"/>
</svg>
